<?xml version="1.0" encoding="UTF-8" standalone="no"?>
<!DOCTYPE svg PUBLIC "-//W3C//DTD SVG 1.1//EN"
 "http://www.w3.org/Graphics/SVG/1.1/DTD/svg11.dtd">
<!-- Generated by graphviz version 2.40.1 (20161225.0304)
 -->
<!-- Title: public.cclf_files Pages: 1 -->
<svg width="853pt" height="802pt"
 viewBox="0.00 0.00 852.50 802.00" xmlns="http://www.w3.org/2000/svg" xmlns:xlink="http://www.w3.org/1999/xlink">
<g id="graph0" class="graph" transform="scale(1 1) rotate(0) translate(4 798)">
<title>public.cclf_files</title>
<polygon fill="#ffffff" stroke="transparent" points="-4,4 -4,-798 848.5,-798 848.5,4 -4,4"/>
<!-- public.cclf_files -->
<g id="node1" class="node">
<title>public.cclf_files</title>
<polygon fill="#efefef" stroke="transparent" points="78.5,-345.5 78.5,-380.5 340.5,-380.5 340.5,-345.5 78.5,-345.5"/>
<polygon fill="none" stroke="#000000" points="78.5,-345.5 78.5,-380.5 340.5,-380.5 340.5,-345.5 78.5,-345.5"/>
<text text-anchor="start" x="85.2117" y="-358.3" font-family="Arial Bold" font-size="18.00" fill="#000000">public.cclf_files</text>
<text text-anchor="start" x="206.2203" y="-358.3" font-family="Arial" font-size="14.00" fill="#000000">    </text>
<text text-anchor="start" x="240.4251" y="-358.3" font-family="Arial" font-size="14.00" fill="#666666">[BASE TABLE]</text>
<polygon fill="none" stroke="#000000" points="78.5,-315.5 78.5,-345.5 340.5,-345.5 340.5,-315.5 78.5,-315.5"/>
<text text-anchor="start" x="85.5" y="-326.9" font-family="Arial" font-size="14.00" fill="#000000">id </text>
<text text-anchor="start" x="100.2798" y="-326.9" font-family="Arial" font-size="14.00" fill="#666666">[integer]</text>
<polygon fill="none" stroke="#000000" points="78.5,-285.5 78.5,-315.5 340.5,-315.5 340.5,-285.5 78.5,-285.5"/>
<text text-anchor="start" x="85.5" y="-296.9" font-family="Arial" font-size="14.00" fill="#000000">created_at </text>
<text text-anchor="start" x="155.528" y="-296.9" font-family="Arial" font-size="14.00" fill="#666666">[timestamp with time zone]</text>
<polygon fill="none" stroke="#000000" points="78.5,-255.5 78.5,-285.5 340.5,-285.5 340.5,-255.5 78.5,-255.5"/>
<text text-anchor="start" x="85.5" y="-266.9" font-family="Arial" font-size="14.00" fill="#000000">updated_at </text>
<text text-anchor="start" x="159.4326" y="-266.9" font-family="Arial" font-size="14.00" fill="#666666">[timestamp with time zone]</text>
<polygon fill="none" stroke="#000000" points="78.5,-225.5 78.5,-255.5 340.5,-255.5 340.5,-225.5 78.5,-225.5"/>
<text text-anchor="start" x="85.5" y="-236.9" font-family="Arial" font-size="14.00" fill="#000000">cclf_num </text>
<text text-anchor="start" x="145.3962" y="-236.9" font-family="Arial" font-size="14.00" fill="#666666">[integer]</text>
<polygon fill="none" stroke="#000000" points="78.5,-195.5 78.5,-225.5 340.5,-225.5 340.5,-195.5 78.5,-195.5"/>
<text text-anchor="start" x="85.5" y="-206.9" font-family="Arial" font-size="14.00" fill="#000000">name </text>
<text text-anchor="start" x="124.399" y="-206.9" font-family="Arial" font-size="14.00" fill="#666666">[text]</text>
<polygon fill="none" stroke="#000000" points="78.5,-165.5 78.5,-195.5 340.5,-195.5 340.5,-165.5 78.5,-165.5"/>
<text text-anchor="start" x="85.5" y="-176.9" font-family="Arial" font-size="14.00" fill="#000000">aco_cms_id </text>
<text text-anchor="start" x="164.0708" y="-176.9" font-family="Arial" font-size="14.00" fill="#666666">[varchar(8)]</text>
<polygon fill="none" stroke="#000000" points="78.5,-135.5 78.5,-165.5 340.5,-165.5 340.5,-135.5 78.5,-135.5"/>
<text text-anchor="start" x="85.5" y="-146.9" font-family="Arial" font-size="14.00" fill="#000000">timestamp </text>
<text text-anchor="start" x="153.9474" y="-146.9" font-family="Arial" font-size="14.00" fill="#666666">[timestamp with time zone]</text>
<polygon fill="none" stroke="#000000" points="78.5,-105.5 78.5,-135.5 340.5,-135.5 340.5,-105.5 78.5,-105.5"/>
<text text-anchor="start" x="85.5" y="-116.9" font-family="Arial" font-size="14.00" fill="#000000">performance_year </text>
<text text-anchor="start" x="202.967" y="-116.9" font-family="Arial" font-size="14.00" fill="#666666">[integer]</text>
<polygon fill="none" stroke="#000000" points="78.5,-75.5 78.5,-105.5 340.5,-105.5 340.5,-75.5 78.5,-75.5"/>
<text text-anchor="start" x="85.5" y="-86.9" font-family="Arial" font-size="14.00" fill="#000000">import_status </text>
<text text-anchor="start" x="173.4032" y="-86.9" font-family="Arial" font-size="14.00" fill="#666666">[text]</text>
<polygon fill="none" stroke="#000000" points="78.5,-45.5 78.5,-75.5 340.5,-75.5 340.5,-45.5 78.5,-45.5"/>
<text text-anchor="start" x="85.5" y="-56.9" font-family="Arial" font-size="14.00" fill="#000000">type </text>
<text text-anchor="start" x="115.8464" y="-56.9" font-family="Arial" font-size="14.00" fill="#666666">[smallint]</text>
<polygon fill="none" stroke="#000000" stroke-width="3" points="77,-44.5 77,-382.5 342,-382.5 342,-44.5 77,-44.5"/>
</g>
<!-- public.cclf_beneficiaries -->
<g id="node2" class="node">
<title>public.cclf_beneficiaries</title>
<polygon fill="#efefef" stroke="transparent" points="43.5,-715.5 43.5,-750.5 374.5,-750.5 374.5,-715.5 43.5,-715.5"/>
<polygon fill="none" stroke="#000000" points="43.5,-715.5 43.5,-750.5 374.5,-750.5 374.5,-715.5 43.5,-715.5"/>
<text text-anchor="start" x="50.203" y="-728.3" font-family="Arial Bold" font-size="18.00" fill="#000000">public.cclf_beneficiaries</text>
<text text-anchor="start" x="240.229" y="-728.3" font-family="Arial" font-size="14.00" fill="#000000">    </text>
<text text-anchor="start" x="274.4338" y="-728.3" font-family="Arial" font-size="14.00" fill="#666666">[BASE TABLE]</text>
<polygon fill="none" stroke="#000000" points="43.5,-685.5 43.5,-715.5 374.5,-715.5 374.5,-685.5 43.5,-685.5"/>
<text text-anchor="start" x="50.5" y="-696.9" font-family="Arial" font-size="14.00" fill="#000000">id    </text>
<text text-anchor="start" x="95.594" y="-696.9" font-family="Arial" font-size="14.00" fill="#666666">[integer]</text>
<polygon fill="none" stroke="#000000" points="43.5,-655.5 43.5,-685.5 374.5,-685.5 374.5,-655.5 43.5,-655.5"/>
<text text-anchor="start" x="50.5" y="-666.9" font-family="Arial" font-size="14.00" fill="#000000">created_at    </text>
<text text-anchor="start" x="150.8422" y="-666.9" font-family="Arial" font-size="14.00" fill="#666666">[timestamp with time zone]</text>
<polygon fill="none" stroke="#000000" points="43.5,-625.5 43.5,-655.5 374.5,-655.5 374.5,-625.5 43.5,-625.5"/>
<text text-anchor="start" x="50.5" y="-636.9" font-family="Arial" font-size="14.00" fill="#000000">updated_at    </text>
<text text-anchor="start" x="154.7468" y="-636.9" font-family="Arial" font-size="14.00" fill="#666666">[timestamp with time zone]</text>
<polygon fill="none" stroke="#000000" points="43.5,-595.5 43.5,-625.5 374.5,-625.5 374.5,-595.5 43.5,-595.5"/>
<text text-anchor="start" x="50.5" y="-606.9" font-family="Arial" font-size="14.00" fill="#000000">file_id    </text>
<text text-anchor="start" x="121.263" y="-606.9" font-family="Arial" font-size="14.00" fill="#666666">[integer]</text>
<polygon fill="none" stroke="#000000" points="43.5,-565.5 43.5,-595.5 374.5,-595.5 374.5,-565.5 43.5,-565.5"/>
<text text-anchor="start" x="50.5" y="-576.9" font-family="Arial" font-size="14.00" fill="#000000">mbi    </text>
<text text-anchor="start" x="107.2546" y="-576.9" font-family="Arial" font-size="14.00" fill="#666666">[character(11)]</text>
<polygon fill="none" stroke="#000000" points="43.5,-535.5 43.5,-565.5 374.5,-565.5 374.5,-535.5 43.5,-535.5"/>
<text text-anchor="start" x="50.5" y="-546.9" font-family="Arial" font-size="14.00" fill="#000000">beneficiary_id    </text>
<text text-anchor="start" x="171.054" y="-546.9" font-family="Arial" font-size="14.00" fill="#666666">[integer]</text>
<polygon fill="none" stroke="#000000" points="43.5,-505.5 43.5,-535.5 374.5,-535.5 374.5,-505.5 43.5,-505.5"/>
<text text-anchor="start" x="50.5" y="-516.9" font-family="Arial" font-size="14.00" fill="#000000">blue_button_id    </text>
<text text-anchor="start" x="176.5252" y="-516.9" font-family="Arial" font-size="14.00" fill="#666666">[text]</text>
</g>
<!-- public.cclf_beneficiaries&#45;&gt;public.cclf_files -->
<g id="edge1" class="edge">
<title>public.cclf_beneficiaries:file_id&#45;&gt;public.cclf_files:id</title>
<path fill="none" stroke="#000000" d="M384.4797,-609.6411C437.5756,-599.8822 415.5895,-509.3896 374.5,-463 286.6295,-363.795 166.3705,-526.205 78.5,-427 50.0626,-394.8944 35.6111,-330.5 78.5,-330.5"/>
<polygon fill="#000000" stroke="#000000" points="384.4632,-609.6424 374.1141,-606.0166 379.4816,-610.0712 374.5,-610.5 374.5,-610.5 374.5,-610.5 379.4816,-610.0712 374.8859,-614.9834 384.4632,-609.6424 384.4632,-609.6424"/>
<text text-anchor="start" x="381.176" y="-620.5" font-family="Arial" font-size="10.00" fill="#000000">FOREIGN KEY (file_id) REFERENCES cclf_files(id) ON UPDATE RESTRICT ON DELETE RESTRICT</text>
</g>
</g>
</svg>
