<?xml version="1.0" encoding="UTF-8" standalone="no"?>
<!DOCTYPE svg PUBLIC "-//W3C//DTD SVG 1.1//EN"
 "http://www.w3.org/Graphics/SVG/1.1/DTD/svg11.dtd">
<!-- Generated by graphviz version 2.40.1 (20161225.0304)
 -->
<!-- Title: public.alr_meta Pages: 1 -->
<svg width="816pt" height="802pt"
 viewBox="0.00 0.00 815.50 802.00" xmlns="http://www.w3.org/2000/svg" xmlns:xlink="http://www.w3.org/1999/xlink">
<g id="graph0" class="graph" transform="scale(1 1) rotate(0) translate(4 798)">
<title>public.alr_meta</title>
<polygon fill="#ffffff" stroke="transparent" points="-4,4 -4,-798 811.5,-798 811.5,4 -4,4"/>
<!-- public.alr_meta -->
<g id="node1" class="node">
<title>public.alr_meta</title>
<polygon fill="#efefef" stroke="transparent" points="492,-195.5 492,-230.5 755,-230.5 755,-195.5 492,-195.5"/>
<polygon fill="none" stroke="#000000" points="492,-195.5 492,-230.5 755,-230.5 755,-195.5 492,-195.5"/>
<text text-anchor="start" x="498.7086" y="-208.3" font-family="Arial Bold" font-size="18.00" fill="#000000">public.alr_meta</text>
<text text-anchor="start" x="620.7234" y="-208.3" font-family="Arial" font-size="14.00" fill="#000000">    </text>
<text text-anchor="start" x="654.9282" y="-208.3" font-family="Arial" font-size="14.00" fill="#666666">[BASE TABLE]</text>
<polygon fill="none" stroke="#000000" points="492,-165.5 492,-195.5 755,-195.5 755,-165.5 492,-165.5"/>
<text text-anchor="start" x="499" y="-176.9" font-family="Arial" font-size="14.00" fill="#000000">created_at </text>
<text text-anchor="start" x="569.028" y="-176.9" font-family="Arial" font-size="14.00" fill="#666666">[timestamp with time zone]</text>
<polygon fill="none" stroke="#000000" points="492,-135.5 492,-165.5 755,-165.5 755,-135.5 492,-135.5"/>
<text text-anchor="start" x="499" y="-146.9" font-family="Arial" font-size="14.00" fill="#000000">updated_at </text>
<text text-anchor="start" x="572.9326" y="-146.9" font-family="Arial" font-size="14.00" fill="#666666">[timestamp with time zone]</text>
<polygon fill="none" stroke="#000000" points="492,-105.5 492,-135.5 755,-135.5 755,-105.5 492,-105.5"/>
<text text-anchor="start" x="499" y="-116.9" font-family="Arial" font-size="14.00" fill="#000000">id </text>
<text text-anchor="start" x="513.7798" y="-116.9" font-family="Arial" font-size="14.00" fill="#666666">[bigint]</text>
<polygon fill="none" stroke="#000000" points="492,-75.5 492,-105.5 755,-105.5 755,-75.5 492,-75.5"/>
<text text-anchor="start" x="499" y="-86.9" font-family="Arial" font-size="14.00" fill="#000000">aco </text>
<text text-anchor="start" x="525.4558" y="-86.9" font-family="Arial" font-size="14.00" fill="#666666">[varchar(5)]</text>
<polygon fill="none" stroke="#000000" points="492,-45.5 492,-75.5 755,-75.5 755,-45.5 492,-45.5"/>
<text text-anchor="start" x="499" y="-56.9" font-family="Arial" font-size="14.00" fill="#000000">timestp </text>
<text text-anchor="start" x="548.0042" y="-56.9" font-family="Arial" font-size="14.00" fill="#666666">[timestamp with time zone]</text>
<polygon fill="none" stroke="#000000" stroke-width="3" points="490,-44.5 490,-232.5 756,-232.5 756,-44.5 490,-44.5"/>
</g>
<!-- public.alr -->
<g id="node2" class="node">
<title>public.alr</title>
<polygon fill="#efefef" stroke="transparent" points="482,-715.5 482,-750.5 765,-750.5 765,-715.5 482,-715.5"/>
<polygon fill="none" stroke="#000000" points="482,-715.5 482,-750.5 765,-750.5 765,-715.5 482,-715.5"/>
<text text-anchor="start" x="523.7151" y="-728.3" font-family="Arial Bold" font-size="18.00" fill="#000000">public.alr</text>
<text text-anchor="start" x="595.7169" y="-728.3" font-family="Arial" font-size="14.00" fill="#000000">    </text>
<text text-anchor="start" x="629.9217" y="-728.3" font-family="Arial" font-size="14.00" fill="#666666">[BASE TABLE]</text>
<polygon fill="none" stroke="#000000" points="482,-685.5 482,-715.5 765,-715.5 765,-685.5 482,-685.5"/>
<text text-anchor="start" x="489" y="-696.9" font-family="Arial" font-size="14.00" fill="#000000">created_at    </text>
<text text-anchor="start" x="589.3422" y="-696.9" font-family="Arial" font-size="14.00" fill="#666666">[timestamp with time zone]</text>
<polygon fill="none" stroke="#000000" points="482,-655.5 482,-685.5 765,-685.5 765,-655.5 482,-655.5"/>
<text text-anchor="start" x="488.5344" y="-666.9" font-family="Arial" font-size="14.00" fill="#000000">updated_at    </text>
<text text-anchor="start" x="592.7812" y="-666.9" font-family="Arial" font-size="14.00" fill="#666666">[timestamp with time zone]</text>
<polygon fill="none" stroke="#000000" points="482,-625.5 482,-655.5 765,-655.5 765,-625.5 482,-625.5"/>
<text text-anchor="start" x="489" y="-636.9" font-family="Arial" font-size="14.00" fill="#000000">id    </text>
<text text-anchor="start" x="534.094" y="-636.9" font-family="Arial" font-size="14.00" fill="#666666">[bigint]</text>
<polygon fill="none" stroke="#000000" points="482,-595.5 482,-625.5 765,-625.5 765,-595.5 482,-595.5"/>
<text text-anchor="start" x="489" y="-606.9" font-family="Arial" font-size="14.00" fill="#000000">metakey    </text>
<text text-anchor="start" x="576.1038" y="-606.9" font-family="Arial" font-size="14.00" fill="#666666">[bigint]</text>
<polygon fill="none" stroke="#000000" points="482,-565.5 482,-595.5 765,-595.5 765,-565.5 482,-565.5"/>
<text text-anchor="start" x="489" y="-576.9" font-family="Arial" font-size="14.00" fill="#000000">mbi    </text>
<text text-anchor="start" x="545.7546" y="-576.9" font-family="Arial" font-size="14.00" fill="#666666">[character(11)]</text>
<polygon fill="none" stroke="#000000" points="482,-535.5 482,-565.5 765,-565.5 765,-535.5 482,-535.5"/>
<text text-anchor="start" x="489" y="-546.9" font-family="Arial" font-size="14.00" fill="#000000">hic    </text>
<text text-anchor="start" x="541.094" y="-546.9" font-family="Arial" font-size="14.00" fill="#666666">[character(12)]</text>
<polygon fill="none" stroke="#000000" points="482,-505.5 482,-535.5 765,-535.5 765,-505.5 482,-505.5"/>
<text text-anchor="start" x="489" y="-516.9" font-family="Arial" font-size="14.00" fill="#000000">firstname    </text>
<text text-anchor="start" x="580.7616" y="-516.9" font-family="Arial" font-size="14.00" fill="#666666">[varchar(30)]</text>
<polygon fill="none" stroke="#000000" points="482,-475.5 482,-505.5 765,-505.5 765,-475.5 482,-475.5"/>
<text text-anchor="start" x="489" y="-486.9" font-family="Arial" font-size="14.00" fill="#000000">lastname    </text>
<text text-anchor="start" x="579.993" y="-486.9" font-family="Arial" font-size="14.00" fill="#666666">[varchar(40)]</text>
<polygon fill="none" stroke="#000000" points="482,-445.5 482,-475.5 765,-475.5 765,-445.5 482,-445.5"/>
<text text-anchor="start" x="489" y="-456.9" font-family="Arial" font-size="14.00" fill="#000000">sex    </text>
<text text-anchor="start" x="544.9874" y="-456.9" font-family="Arial" font-size="14.00" fill="#666666">[character(1)]</text>
<polygon fill="none" stroke="#000000" points="482,-415.5 482,-445.5 765,-445.5 765,-415.5 482,-415.5"/>
<text text-anchor="start" x="489" y="-426.9" font-family="Arial" font-size="14.00" fill="#000000">dob    </text>
<text text-anchor="start" x="546.5526" y="-426.9" font-family="Arial" font-size="14.00" fill="#666666">[timestamp without time zone]</text>
<polygon fill="none" stroke="#000000" points="482,-385.5 482,-415.5 765,-415.5 765,-385.5 482,-385.5"/>
<text text-anchor="start" x="489" y="-396.9" font-family="Arial" font-size="14.00" fill="#000000">dod    </text>
<text text-anchor="start" x="546.5526" y="-396.9" font-family="Arial" font-size="14.00" fill="#666666">[timestamp without time zone]</text>
<polygon fill="none" stroke="#000000" points="482,-355.5 482,-385.5 765,-385.5 765,-355.5 482,-355.5"/>
<text text-anchor="start" x="489" y="-366.9" font-family="Arial" font-size="14.00" fill="#000000">keyvalue    </text>
<text text-anchor="start" x="578.4418" y="-366.9" font-family="Arial" font-size="14.00" fill="#666666">[bytea]</text>
</g>
<!-- public.alr&#45;&gt;public.alr_meta -->
<g id="edge1" class="edge">
<title>public.alr:metakey&#45;&gt;public.alr_meta:id</title>
<path fill="none" stroke="#000000" d="M473.0875,-605.6503C428.8687,-554.7604 440.735,-120.5 492,-120.5"/>
<polygon fill="#000000" stroke="#000000" points="473.2162,-605.7203 479.8491,-614.4527 477.6081,-608.1101 482,-610.5 482,-610.5 482,-610.5 477.6081,-608.1101 484.1509,-606.5473 473.2162,-605.7203 473.2162,-605.7203"/>
<text text-anchor="start" x="6.5605" y="-620.5" font-family="Arial" font-size="10.00" fill="#000000">FOREIGN KEY (metakey) REFERENCES alr_meta(id) ON UPDATE RESTRICT ON DELETE RESTRICT</text>
</g>
</g>
</svg>
