<?xml version="1.0" encoding="UTF-8" standalone="no"?>
<!DOCTYPE svg PUBLIC "-//W3C//DTD SVG 1.1//EN"
 "http://www.w3.org/Graphics/SVG/1.1/DTD/svg11.dtd">
<!-- Generated by graphviz version 2.40.1 (20161225.0304)
 -->
<!-- Title: public.jobs Pages: 1 -->
<svg width="581pt" height="862pt"
 viewBox="0.00 0.00 581.00 862.00" xmlns="http://www.w3.org/2000/svg" xmlns:xlink="http://www.w3.org/1999/xlink">
<g id="graph0" class="graph" transform="scale(1 1) rotate(0) translate(4 858)">
<title>public.jobs</title>
<polygon fill="#ffffff" stroke="transparent" points="-4,4 -4,-858 577,-858 577,4 -4,4"/>
<!-- public.jobs -->
<g id="node1" class="node">
<title>public.jobs</title>
<polygon fill="#efefef" stroke="transparent" points="241,-772.5 241,-807.5 527,-807.5 527,-772.5 241,-772.5"/>
<polygon fill="none" stroke="#000000" points="241,-772.5 241,-807.5 527,-807.5 527,-772.5 241,-772.5"/>
<text text-anchor="start" x="277.7081" y="-785.3" font-family="Arial Bold" font-size="18.00" fill="#000000">public.jobs</text>
<text text-anchor="start" x="362.7239" y="-785.3" font-family="Arial" font-size="14.00" fill="#000000">    </text>
<text text-anchor="start" x="396.9287" y="-785.3" font-family="Arial" font-size="14.00" fill="#666666">[BASE TABLE]</text>
<polygon fill="none" stroke="#000000" points="241,-742.5 241,-772.5 527,-772.5 527,-742.5 241,-742.5"/>
<text text-anchor="start" x="248" y="-753.9" font-family="Arial" font-size="14.00" fill="#000000">id </text>
<text text-anchor="start" x="262.7798" y="-753.9" font-family="Arial" font-size="14.00" fill="#666666">[integer]</text>
<polygon fill="none" stroke="#000000" points="241,-712.5 241,-742.5 527,-742.5 527,-712.5 241,-712.5"/>
<text text-anchor="start" x="248" y="-723.9" font-family="Arial" font-size="14.00" fill="#000000">aco_id </text>
<text text-anchor="start" x="293.1276" y="-723.9" font-family="Arial" font-size="14.00" fill="#666666">[uuid]</text>
<polygon fill="none" stroke="#000000" points="241,-682.5 241,-712.5 527,-712.5 527,-682.5 241,-682.5"/>
<text text-anchor="start" x="248" y="-693.9" font-family="Arial" font-size="14.00" fill="#000000">request_url </text>
<text text-anchor="start" x="321.9046" y="-693.9" font-family="Arial" font-size="14.00" fill="#666666">[text]</text>
<polygon fill="none" stroke="#000000" points="241,-652.5 241,-682.5 527,-682.5 527,-652.5 241,-652.5"/>
<text text-anchor="start" x="248" y="-663.9" font-family="Arial" font-size="14.00" fill="#000000">status </text>
<text text-anchor="start" x="289.237" y="-663.9" font-family="Arial" font-size="14.00" fill="#666666">[text]</text>
<polygon fill="none" stroke="#000000" points="241,-622.5 241,-652.5 527,-652.5 527,-622.5 241,-622.5"/>
<text text-anchor="start" x="248" y="-633.9" font-family="Arial" font-size="14.00" fill="#000000">created_at </text>
<text text-anchor="start" x="318.028" y="-633.9" font-family="Arial" font-size="14.00" fill="#666666">[timestamp with time zone]</text>
<polygon fill="none" stroke="#000000" points="241,-592.5 241,-622.5 527,-622.5 527,-592.5 241,-592.5"/>
<text text-anchor="start" x="248" y="-603.9" font-family="Arial" font-size="14.00" fill="#000000">updated_at </text>
<text text-anchor="start" x="321.9326" y="-603.9" font-family="Arial" font-size="14.00" fill="#666666">[timestamp with time zone]</text>
<polygon fill="none" stroke="#000000" points="241,-562.5 241,-592.5 527,-592.5 527,-562.5 241,-562.5"/>
<text text-anchor="start" x="248" y="-573.9" font-family="Arial" font-size="14.00" fill="#000000">job_count </text>
<text text-anchor="start" x="312.5834" y="-573.9" font-family="Arial" font-size="14.00" fill="#666666">[integer]</text>
<polygon fill="none" stroke="#000000" points="241,-532.5 241,-562.5 527,-562.5 527,-532.5 241,-532.5"/>
<text text-anchor="start" x="247.8703" y="-543.9" font-family="Arial" font-size="14.00" fill="#000000">transaction_time </text>
<text text-anchor="start" x="354.4453" y="-543.9" font-family="Arial" font-size="14.00" fill="#666666">[timestamp with time zone]</text>
<polygon fill="none" stroke="#000000" points="241,-502.5 241,-532.5 527,-532.5 527,-502.5 241,-502.5"/>
<text text-anchor="start" x="248" y="-513.9" font-family="Arial" font-size="14.00" fill="#000000">priority </text>
<text text-anchor="start" x="293.8808" y="-513.9" font-family="Arial" font-size="14.00" fill="#666666">[integer]</text>
<polygon fill="none" stroke="#000000" stroke-width="3" points="239.5,-501.5 239.5,-809.5 528.5,-809.5 528.5,-501.5 239.5,-501.5"/>
</g>
<!-- public.acos -->
<g id="node2" class="node">
<title>public.acos</title>
<polygon fill="#efefef" stroke="transparent" points="242,-342.5 242,-377.5 525,-377.5 525,-342.5 242,-342.5"/>
<polygon fill="none" stroke="#000000" points="242,-342.5 242,-377.5 525,-377.5 525,-342.5 242,-342.5"/>
<text text-anchor="start" x="274.7052" y="-355.3" font-family="Arial Bold" font-size="18.00" fill="#000000">public.acos</text>
<text text-anchor="start" x="364.7268" y="-355.3" font-family="Arial" font-size="14.00" fill="#000000">    </text>
<text text-anchor="start" x="398.9316" y="-355.3" font-family="Arial" font-size="14.00" fill="#666666">[BASE TABLE]</text>
<polygon fill="none" stroke="#000000" points="242,-312.5 242,-342.5 525,-342.5 525,-312.5 242,-312.5"/>
<text text-anchor="start" x="249" y="-323.9" font-family="Arial" font-size="14.00" fill="#000000">uuid    </text>
<text text-anchor="start" x="309.6592" y="-323.9" font-family="Arial" font-size="14.00" fill="#666666">[uuid]</text>
<polygon fill="none" stroke="#000000" points="242,-282.5 242,-312.5 525,-312.5 525,-282.5 242,-282.5"/>
<text text-anchor="start" x="249" y="-293.9" font-family="Arial" font-size="14.00" fill="#000000">name    </text>
<text text-anchor="start" x="318.2132" y="-293.9" font-family="Arial" font-size="14.00" fill="#666666">[text]</text>
<polygon fill="none" stroke="#000000" points="242,-252.5 242,-282.5 525,-282.5 525,-252.5 242,-252.5"/>
<text text-anchor="start" x="249" y="-263.9" font-family="Arial" font-size="14.00" fill="#000000">created_at    </text>
<text text-anchor="start" x="349.3422" y="-263.9" font-family="Arial" font-size="14.00" fill="#666666">[timestamp with time zone]</text>
<polygon fill="none" stroke="#000000" points="242,-222.5 242,-252.5 525,-252.5 525,-222.5 242,-222.5"/>
<text text-anchor="start" x="248.5344" y="-233.9" font-family="Arial" font-size="14.00" fill="#000000">updated_at    </text>
<text text-anchor="start" x="352.7812" y="-233.9" font-family="Arial" font-size="14.00" fill="#666666">[timestamp with time zone]</text>
<polygon fill="none" stroke="#000000" points="242,-192.5 242,-222.5 525,-222.5 525,-192.5 242,-192.5"/>
<text text-anchor="start" x="249" y="-203.9" font-family="Arial" font-size="14.00" fill="#000000">id    </text>
<text text-anchor="start" x="294.094" y="-203.9" font-family="Arial" font-size="14.00" fill="#666666">[integer]</text>
<polygon fill="none" stroke="#000000" points="242,-162.5 242,-192.5 525,-192.5 525,-162.5 242,-162.5"/>
<text text-anchor="start" x="249" y="-173.9" font-family="Arial" font-size="14.00" fill="#000000">client_id    </text>
<text text-anchor="start" x="334.5456" y="-173.9" font-family="Arial" font-size="14.00" fill="#666666">[text]</text>
<polygon fill="none" stroke="#000000" points="242,-132.5 242,-162.5 525,-162.5 525,-132.5 242,-132.5"/>
<text text-anchor="start" x="249" y="-143.9" font-family="Arial" font-size="14.00" fill="#000000">cms_id    </text>
<text text-anchor="start" x="327.5372" y="-143.9" font-family="Arial" font-size="14.00" fill="#666666">[varchar(8)]</text>
<polygon fill="none" stroke="#000000" points="242,-102.5 242,-132.5 525,-132.5 525,-102.5 242,-102.5"/>
<text text-anchor="start" x="249" y="-113.9" font-family="Arial" font-size="14.00" fill="#000000">group_id    </text>
<text text-anchor="start" x="337.6676" y="-113.9" font-family="Arial" font-size="14.00" fill="#666666">[text]</text>
<polygon fill="none" stroke="#000000" points="242,-72.5 242,-102.5 525,-102.5 525,-72.5 242,-72.5"/>
<text text-anchor="start" x="249" y="-83.9" font-family="Arial" font-size="14.00" fill="#000000">system_id    </text>
<text text-anchor="start" x="346.2104" y="-83.9" font-family="Arial" font-size="14.00" fill="#666666">[text]</text>
<polygon fill="none" stroke="#000000" points="242,-42.5 242,-72.5 525,-72.5 525,-42.5 242,-42.5"/>
<text text-anchor="start" x="249" y="-53.9" font-family="Arial" font-size="14.00" fill="#000000">termination_details    </text>
<text text-anchor="start" x="400.6676" y="-53.9" font-family="Arial" font-size="14.00" fill="#666666">[jsonb]</text>
</g>
<!-- public.jobs&#45;&gt;public.acos -->
<g id="edge1" class="edge">
<title>public.jobs:aco_id&#45;&gt;public.acos:uuid</title>
<path fill="none" stroke="#000000" d="M230.845,-727.0425C123.198,-717.0127 163.8434,-544.5544 241,-457 325.12,-361.5438 440.88,-516.4562 525,-421 552.4746,-389.8229 566.5556,-327.5 525,-327.5"/>
<polygon fill="#000000" stroke="#000000" points="231.0101,-727.0499 240.7974,-731.9954 236.0051,-727.2749 241,-727.5 241,-727.5 241,-727.5 236.0051,-727.2749 241.2026,-723.0046 231.0101,-727.0499 231.0101,-727.0499"/>
<text text-anchor="start" x="7.1045" y="-737.5" font-family="Arial" font-size="10.00" fill="#000000">FOREIGN KEY (aco_id) REFERENCES acos(uuid)</text>
</g>
</g>
</svg>
