<?xml version="1.0" encoding="UTF-8" standalone="no"?>
<!DOCTYPE svg PUBLIC "-//W3C//DTD SVG 1.1//EN"
 "http://www.w3.org/Graphics/SVG/1.1/DTD/svg11.dtd">
<!-- Generated by graphviz version 2.40.1 (20161225.0304)
 -->
<!-- Title: public.alr Pages: 1 -->
<svg width="801pt" height="802pt"
 viewBox="0.00 0.00 800.50 802.00" xmlns="http://www.w3.org/2000/svg" xmlns:xlink="http://www.w3.org/1999/xlink">
<g id="graph0" class="graph" transform="scale(1 1) rotate(0) translate(4 798)">
<title>public.alr</title>
<polygon fill="#ffffff" stroke="transparent" points="-4,4 -4,-798 796.5,-798 796.5,4 -4,4"/>
<!-- public.alr -->
<g id="node1" class="node">
<title>public.alr</title>
<polygon fill="#efefef" stroke="transparent" points="482,-712.5 482,-747.5 735,-747.5 735,-712.5 482,-712.5"/>
<polygon fill="none" stroke="#000000" points="482,-712.5 482,-747.5 735,-747.5 735,-712.5 482,-712.5"/>
<text text-anchor="start" x="508.7151" y="-725.3" font-family="Arial Bold" font-size="18.00" fill="#000000">public.alr</text>
<text text-anchor="start" x="580.7169" y="-725.3" font-family="Arial" font-size="14.00" fill="#000000">    </text>
<text text-anchor="start" x="614.9217" y="-725.3" font-family="Arial" font-size="14.00" fill="#666666">[BASE TABLE]</text>
<polygon fill="none" stroke="#000000" points="482,-682.5 482,-712.5 735,-712.5 735,-682.5 482,-682.5"/>
<text text-anchor="start" x="489" y="-693.9" font-family="Arial" font-size="14.00" fill="#000000">created_at </text>
<text text-anchor="start" x="559.028" y="-693.9" font-family="Arial" font-size="14.00" fill="#666666">[timestamp with time zone]</text>
<polygon fill="none" stroke="#000000" points="482,-652.5 482,-682.5 735,-682.5 735,-652.5 482,-652.5"/>
<text text-anchor="start" x="488.6915" y="-663.9" font-family="Arial" font-size="14.00" fill="#000000">updated_at </text>
<text text-anchor="start" x="562.6241" y="-663.9" font-family="Arial" font-size="14.00" fill="#666666">[timestamp with time zone]</text>
<polygon fill="none" stroke="#000000" points="482,-622.5 482,-652.5 735,-652.5 735,-622.5 482,-622.5"/>
<text text-anchor="start" x="489" y="-633.9" font-family="Arial" font-size="14.00" fill="#000000">id </text>
<text text-anchor="start" x="503.7798" y="-633.9" font-family="Arial" font-size="14.00" fill="#666666">[bigint]</text>
<polygon fill="none" stroke="#000000" points="482,-592.5 482,-622.5 735,-622.5 735,-592.5 482,-592.5"/>
<text text-anchor="start" x="489" y="-603.9" font-family="Arial" font-size="14.00" fill="#000000">metakey </text>
<text text-anchor="start" x="545.7896" y="-603.9" font-family="Arial" font-size="14.00" fill="#666666">[bigint]</text>
<polygon fill="none" stroke="#000000" points="482,-562.5 482,-592.5 735,-592.5 735,-562.5 482,-562.5"/>
<text text-anchor="start" x="489" y="-573.9" font-family="Arial" font-size="14.00" fill="#000000">mbi </text>
<text text-anchor="start" x="515.4404" y="-573.9" font-family="Arial" font-size="14.00" fill="#666666">[character(11)]</text>
<polygon fill="none" stroke="#000000" points="482,-532.5 482,-562.5 735,-562.5 735,-532.5 482,-532.5"/>
<text text-anchor="start" x="489" y="-543.9" font-family="Arial" font-size="14.00" fill="#000000">hic </text>
<text text-anchor="start" x="510.7798" y="-543.9" font-family="Arial" font-size="14.00" fill="#666666">[character(12)]</text>
<polygon fill="none" stroke="#000000" points="482,-502.5 482,-532.5 735,-532.5 735,-502.5 482,-502.5"/>
<text text-anchor="start" x="489" y="-513.9" font-family="Arial" font-size="14.00" fill="#000000">firstname </text>
<text text-anchor="start" x="550.4474" y="-513.9" font-family="Arial" font-size="14.00" fill="#666666">[varchar(30)]</text>
<polygon fill="none" stroke="#000000" points="482,-472.5 482,-502.5 735,-502.5 735,-472.5 482,-472.5"/>
<text text-anchor="start" x="489" y="-483.9" font-family="Arial" font-size="14.00" fill="#000000">lastname </text>
<text text-anchor="start" x="549.6788" y="-483.9" font-family="Arial" font-size="14.00" fill="#666666">[varchar(40)]</text>
<polygon fill="none" stroke="#000000" points="482,-442.5 482,-472.5 735,-472.5 735,-442.5 482,-442.5"/>
<text text-anchor="start" x="489" y="-453.9" font-family="Arial" font-size="14.00" fill="#000000">sex </text>
<text text-anchor="start" x="514.6732" y="-453.9" font-family="Arial" font-size="14.00" fill="#666666">[character(1)]</text>
<polygon fill="none" stroke="#000000" points="482,-412.5 482,-442.5 735,-442.5 735,-412.5 482,-412.5"/>
<text text-anchor="start" x="489" y="-423.9" font-family="Arial" font-size="14.00" fill="#000000">dob </text>
<text text-anchor="start" x="516.2384" y="-423.9" font-family="Arial" font-size="14.00" fill="#666666">[timestamp without time zone]</text>
<polygon fill="none" stroke="#000000" points="482,-382.5 482,-412.5 735,-412.5 735,-382.5 482,-382.5"/>
<text text-anchor="start" x="489" y="-393.9" font-family="Arial" font-size="14.00" fill="#000000">dod </text>
<text text-anchor="start" x="516.2384" y="-393.9" font-family="Arial" font-size="14.00" fill="#666666">[timestamp without time zone]</text>
<polygon fill="none" stroke="#000000" points="482,-352.5 482,-382.5 735,-382.5 735,-352.5 482,-352.5"/>
<text text-anchor="start" x="489" y="-363.9" font-family="Arial" font-size="14.00" fill="#000000">keyvalue </text>
<text text-anchor="start" x="548.1276" y="-363.9" font-family="Arial" font-size="14.00" fill="#666666">[bytea]</text>
<polygon fill="none" stroke="#000000" stroke-width="3" points="480,-351.5 480,-749.5 736,-749.5 736,-351.5 480,-351.5"/>
</g>
<!-- public.alr_meta -->
<g id="node2" class="node">
<title>public.alr_meta</title>
<polygon fill="#efefef" stroke="transparent" points="467,-192.5 467,-227.5 750,-227.5 750,-192.5 467,-192.5"/>
<polygon fill="none" stroke="#000000" points="467,-192.5 467,-227.5 750,-227.5 750,-192.5 467,-192.5"/>
<text text-anchor="start" x="483.7086" y="-205.3" font-family="Arial Bold" font-size="18.00" fill="#000000">public.alr_meta</text>
<text text-anchor="start" x="605.7234" y="-205.3" font-family="Arial" font-size="14.00" fill="#000000">    </text>
<text text-anchor="start" x="639.9282" y="-205.3" font-family="Arial" font-size="14.00" fill="#666666">[BASE TABLE]</text>
<polygon fill="none" stroke="#000000" points="467,-162.5 467,-192.5 750,-192.5 750,-162.5 467,-162.5"/>
<text text-anchor="start" x="474" y="-173.9" font-family="Arial" font-size="14.00" fill="#000000">created_at    </text>
<text text-anchor="start" x="574.3422" y="-173.9" font-family="Arial" font-size="14.00" fill="#666666">[timestamp with time zone]</text>
<polygon fill="none" stroke="#000000" points="467,-132.5 467,-162.5 750,-162.5 750,-132.5 467,-132.5"/>
<text text-anchor="start" x="473.5344" y="-143.9" font-family="Arial" font-size="14.00" fill="#000000">updated_at    </text>
<text text-anchor="start" x="577.7812" y="-143.9" font-family="Arial" font-size="14.00" fill="#666666">[timestamp with time zone]</text>
<polygon fill="none" stroke="#000000" points="467,-102.5 467,-132.5 750,-132.5 750,-102.5 467,-102.5"/>
<text text-anchor="start" x="474" y="-113.9" font-family="Arial" font-size="14.00" fill="#000000">id    </text>
<text text-anchor="start" x="519.094" y="-113.9" font-family="Arial" font-size="14.00" fill="#666666">[bigint]</text>
<polygon fill="none" stroke="#000000" points="467,-72.5 467,-102.5 750,-102.5 750,-72.5 467,-72.5"/>
<text text-anchor="start" x="474" y="-83.9" font-family="Arial" font-size="14.00" fill="#000000">aco    </text>
<text text-anchor="start" x="530.77" y="-83.9" font-family="Arial" font-size="14.00" fill="#666666">[varchar(5)]</text>
<polygon fill="none" stroke="#000000" points="467,-42.5 467,-72.5 750,-72.5 750,-42.5 467,-42.5"/>
<text text-anchor="start" x="474" y="-53.9" font-family="Arial" font-size="14.00" fill="#000000">timestp    </text>
<text text-anchor="start" x="553.3184" y="-53.9" font-family="Arial" font-size="14.00" fill="#666666">[timestamp with time zone]</text>
</g>
<!-- public.alr&#45;&gt;public.alr_meta -->
<g id="edge1" class="edge">
<title>public.alr:metakey&#45;&gt;public.alr_meta:id</title>
<path fill="none" stroke="#000000" d="M472.8378,-602.6503C426.0107,-551.7604 415.7216,-117.5 467,-117.5"/>
<polygon fill="#000000" stroke="#000000" points="473.1618,-602.8217 479.8948,-611.4772 477.5809,-605.1609 482,-607.5 482,-607.5 482,-607.5 477.5809,-605.1609 484.1052,-603.5228 473.1618,-602.8217 473.1618,-602.8217"/>
<text text-anchor="start" x="6.5605" y="-617.5" font-family="Arial" font-size="10.00" fill="#000000">FOREIGN KEY (metakey) REFERENCES alr_meta(id) ON UPDATE RESTRICT ON DELETE RESTRICT</text>
</g>
</g>
</svg>
