<?xml version="1.0" encoding="UTF-8" standalone="no"?>
<!DOCTYPE svg PUBLIC "-//W3C//DTD SVG 1.1//EN"
 "http://www.w3.org/Graphics/SVG/1.1/DTD/svg11.dtd">
<!-- Generated by graphviz version 2.40.1 (20161225.0304)
 -->
<!-- Title: public.schema_migrations_bcda_queue Pages: 1 -->
<svg width="558pt" height="195pt"
 viewBox="0.00 0.00 558.00 195.00" xmlns="http://www.w3.org/2000/svg" xmlns:xlink="http://www.w3.org/1999/xlink">
<g id="graph0" class="graph" transform="scale(1 1) rotate(0) translate(4 191)">
<title>public.schema_migrations_bcda_queue</title>
<polygon fill="#ffffff" stroke="transparent" points="-4,4 -4,-191 554,-191 554,4 -4,4"/>
<!-- public.schema_migrations_bcda_queue -->
<g id="node1" class="node">
<title>public.schema_migrations_bcda_queue</title>
<polygon fill="#efefef" stroke="transparent" points="46,-105.5 46,-140.5 504,-140.5 504,-105.5 46,-105.5"/>
<polygon fill="none" stroke="#000000" points="46,-105.5 46,-140.5 504,-140.5 504,-105.5 46,-105.5"/>
<text text-anchor="start" x="52.672" y="-118.3" font-family="Arial Bold" font-size="18.00" fill="#000000">public.schema_migrations_bcda_queue</text>
<text text-anchor="start" x="369.76" y="-118.3" font-family="Arial" font-size="14.00" fill="#000000">    </text>
<text text-anchor="start" x="403.9648" y="-118.3" font-family="Arial" font-size="14.00" fill="#666666">[BASE TABLE]</text>
<polygon fill="none" stroke="#000000" points="46,-75.5 46,-105.5 504,-105.5 504,-75.5 46,-75.5"/>
<text text-anchor="start" x="53" y="-86.9" font-family="Arial" font-size="14.00" fill="#000000">version </text>
<text text-anchor="start" x="102.0056" y="-86.9" font-family="Arial" font-size="14.00" fill="#666666">[bigint]</text>
<polygon fill="none" stroke="#000000" points="46,-45.5 46,-75.5 504,-75.5 504,-45.5 46,-45.5"/>
<text text-anchor="start" x="53" y="-56.9" font-family="Arial" font-size="14.00" fill="#000000">dirty </text>
<text text-anchor="start" x="83.331" y="-56.9" font-family="Arial" font-size="14.00" fill="#666666">[boolean]</text>
<polygon fill="none" stroke="#000000" stroke-width="3" points="44.5,-44.5 44.5,-142.5 505.5,-142.5 505.5,-44.5 44.5,-44.5"/>
</g>
</g>
</svg>
