<?xml version="1.0" encoding="UTF-8" standalone="no"?>
<!DOCTYPE svg PUBLIC "-//W3C//DTD SVG 1.1//EN"
 "http://www.w3.org/Graphics/SVG/1.1/DTD/svg11.dtd">
<!-- Generated by graphviz version 2.40.1 (20161225.0304)
 -->
<!-- Title: bcda_queue Pages: 1 -->
<svg width="922pt" height="369pt"
 viewBox="0.00 0.00 922.00 369.00" xmlns="http://www.w3.org/2000/svg" xmlns:xlink="http://www.w3.org/1999/xlink">
<g id="graph0" class="graph" transform="scale(1 1) rotate(0) translate(4 365)">
<title>bcda_queue</title>
<polygon fill="#ffffff" stroke="transparent" points="-4,4 -4,-365 918,-365 918,4 -4,4"/>
<!-- public.schema_migrations_bcda_queue -->
<g id="node1" class="node">
<title>public.schema_migrations_bcda_queue</title>
<polygon fill="#efefef" stroke="transparent" points="43,-192.5 43,-227.5 501,-227.5 501,-192.5 43,-192.5"/>
<polygon fill="none" stroke="#000000" points="43,-192.5 43,-227.5 501,-227.5 501,-192.5 43,-192.5"/>
<text text-anchor="start" x="49.672" y="-205.3" font-family="Arial Bold" font-size="18.00" fill="#000000">public.schema_migrations_bcda_queue</text>
<text text-anchor="start" x="366.76" y="-205.3" font-family="Arial" font-size="14.00" fill="#000000">    </text>
<text text-anchor="start" x="400.9648" y="-205.3" font-family="Arial" font-size="14.00" fill="#666666">[BASE TABLE]</text>
<polygon fill="none" stroke="#000000" points="43,-162.5 43,-192.5 501,-192.5 501,-162.5 43,-162.5"/>
<text text-anchor="start" x="50" y="-173.9" font-family="Arial" font-size="14.00" fill="#000000">version    </text>
<text text-anchor="start" x="129.3198" y="-173.9" font-family="Arial" font-size="14.00" fill="#666666">[bigint]</text>
<polygon fill="none" stroke="#000000" points="43,-132.5 43,-162.5 501,-162.5 501,-132.5 43,-132.5"/>
<text text-anchor="start" x="50" y="-143.9" font-family="Arial" font-size="14.00" fill="#000000">dirty    </text>
<text text-anchor="start" x="110.6452" y="-143.9" font-family="Arial" font-size="14.00" fill="#666666">[boolean]</text>
</g>
<!-- public.que_jobs -->
<g id="node2" class="node">
<title>public.que_jobs</title>
<polygon fill="#efefef" stroke="transparent" points="605,-282.5 605,-317.5 871,-317.5 871,-282.5 605,-282.5"/>
<polygon fill="none" stroke="#000000" points="605,-282.5 605,-317.5 871,-317.5 871,-282.5 605,-282.5"/>
<text text-anchor="start" x="611.6957" y="-295.3" font-family="Arial Bold" font-size="18.00" fill="#000000">public.que_jobs</text>
<text text-anchor="start" x="736.7363" y="-295.3" font-family="Arial" font-size="14.00" fill="#000000">    </text>
<text text-anchor="start" x="770.9411" y="-295.3" font-family="Arial" font-size="14.00" fill="#666666">[BASE TABLE]</text>
<polygon fill="none" stroke="#000000" points="605,-252.5 605,-282.5 871,-282.5 871,-252.5 605,-252.5"/>
<text text-anchor="start" x="612" y="-263.9" font-family="Arial" font-size="14.00" fill="#000000">priority    </text>
<text text-anchor="start" x="688.195" y="-263.9" font-family="Arial" font-size="14.00" fill="#666666">[smallint]</text>
<polygon fill="none" stroke="#000000" points="605,-222.5 605,-252.5 871,-252.5 871,-222.5 605,-222.5"/>
<text text-anchor="start" x="612" y="-233.9" font-family="Arial" font-size="14.00" fill="#000000">run_at    </text>
<text text-anchor="start" x="685.8864" y="-233.9" font-family="Arial" font-size="14.00" fill="#666666">[timestamp with time zone]</text>
<polygon fill="none" stroke="#000000" points="605,-192.5 605,-222.5 871,-222.5 871,-192.5 605,-192.5"/>
<text text-anchor="start" x="612" y="-203.9" font-family="Arial" font-size="14.00" fill="#000000">job_id    </text>
<text text-anchor="start" x="683.5484" y="-203.9" font-family="Arial" font-size="14.00" fill="#666666">[bigint]</text>
<polygon fill="none" stroke="#000000" points="605,-162.5 605,-192.5 871,-192.5 871,-162.5 605,-162.5"/>
<text text-anchor="start" x="612" y="-173.9" font-family="Arial" font-size="14.00" fill="#000000">job_class    </text>
<text text-anchor="start" x="704.5484" y="-173.9" font-family="Arial" font-size="14.00" fill="#666666">[text]</text>
<polygon fill="none" stroke="#000000" points="605,-132.5 605,-162.5 871,-162.5 871,-132.5 605,-132.5"/>
<text text-anchor="start" x="612" y="-143.9" font-family="Arial" font-size="14.00" fill="#000000">args    </text>
<text text-anchor="start" x="673.4306" y="-143.9" font-family="Arial" font-size="14.00" fill="#666666">[json]</text>
<polygon fill="none" stroke="#000000" points="605,-102.5 605,-132.5 871,-132.5 871,-102.5 605,-102.5"/>
<text text-anchor="start" x="612" y="-113.9" font-family="Arial" font-size="14.00" fill="#000000">error_count    </text>
<text text-anchor="start" x="717.7728" y="-113.9" font-family="Arial" font-size="14.00" fill="#666666">[integer]</text>
<polygon fill="none" stroke="#000000" points="605,-72.5 605,-102.5 871,-102.5 871,-72.5 605,-72.5"/>
<text text-anchor="start" x="612" y="-83.9" font-family="Arial" font-size="14.00" fill="#000000">last_error    </text>
<text text-anchor="start" x="705.3142" y="-83.9" font-family="Arial" font-size="14.00" fill="#666666">[text]</text>
<polygon fill="none" stroke="#000000" points="605,-42.5 605,-72.5 871,-72.5 871,-42.5 605,-42.5"/>
<text text-anchor="start" x="612" y="-53.9" font-family="Arial" font-size="14.00" fill="#000000">queue    </text>
<text text-anchor="start" x="685.1178" y="-53.9" font-family="Arial" font-size="14.00" fill="#666666">[text]</text>
</g>
</g>
</svg>
