<?xml version="1.0" encoding="UTF-8" standalone="no"?>
<!DOCTYPE svg PUBLIC "-//W3C//DTD SVG 1.1//EN"
 "http://www.w3.org/Graphics/SVG/1.1/DTD/svg11.dtd">
<!-- Generated by graphviz version 2.40.1 (20161225.0304)
 -->
<!-- Title: public.cclf_beneficiaries Pages: 1 -->
<svg width="855pt" height="802pt"
 viewBox="0.00 0.00 854.50 802.00" xmlns="http://www.w3.org/2000/svg" xmlns:xlink="http://www.w3.org/1999/xlink">
<g id="graph0" class="graph" transform="scale(1 1) rotate(0) translate(4 798)">
<title>public.cclf_beneficiaries</title>
<polygon fill="#ffffff" stroke="transparent" points="-4,4 -4,-798 850.5,-798 850.5,4 -4,4"/>
<!-- public.cclf_beneficiaries -->
<g id="node1" class="node">
<title>public.cclf_beneficiaries</title>
<polygon fill="#efefef" stroke="transparent" points="470,-712.5 470,-747.5 801,-747.5 801,-712.5 470,-712.5"/>
<polygon fill="none" stroke="#000000" points="470,-712.5 470,-747.5 801,-747.5 801,-712.5 470,-712.5"/>
<text text-anchor="start" x="476.703" y="-725.3" font-family="Arial Bold" font-size="18.00" fill="#000000">public.cclf_beneficiaries</text>
<text text-anchor="start" x="666.729" y="-725.3" font-family="Arial" font-size="14.00" fill="#000000">    </text>
<text text-anchor="start" x="700.9338" y="-725.3" font-family="Arial" font-size="14.00" fill="#666666">[BASE TABLE]</text>
<polygon fill="none" stroke="#000000" points="470,-682.5 470,-712.5 801,-712.5 801,-682.5 470,-682.5"/>
<text text-anchor="start" x="477" y="-693.9" font-family="Arial" font-size="14.00" fill="#000000">id </text>
<text text-anchor="start" x="491.7798" y="-693.9" font-family="Arial" font-size="14.00" fill="#666666">[integer]</text>
<polygon fill="none" stroke="#000000" points="470,-652.5 470,-682.5 801,-682.5 801,-652.5 470,-652.5"/>
<text text-anchor="start" x="477" y="-663.9" font-family="Arial" font-size="14.00" fill="#000000">created_at </text>
<text text-anchor="start" x="547.028" y="-663.9" font-family="Arial" font-size="14.00" fill="#666666">[timestamp with time zone]</text>
<polygon fill="none" stroke="#000000" points="470,-622.5 470,-652.5 801,-652.5 801,-622.5 470,-622.5"/>
<text text-anchor="start" x="477" y="-633.9" font-family="Arial" font-size="14.00" fill="#000000">updated_at </text>
<text text-anchor="start" x="550.9326" y="-633.9" font-family="Arial" font-size="14.00" fill="#666666">[timestamp with time zone]</text>
<polygon fill="none" stroke="#000000" points="470,-592.5 470,-622.5 801,-622.5 801,-592.5 470,-592.5"/>
<text text-anchor="start" x="477" y="-603.9" font-family="Arial" font-size="14.00" fill="#000000">file_id </text>
<text text-anchor="start" x="517.4488" y="-603.9" font-family="Arial" font-size="14.00" fill="#666666">[integer]</text>
<polygon fill="none" stroke="#000000" points="470,-562.5 470,-592.5 801,-592.5 801,-562.5 470,-562.5"/>
<text text-anchor="start" x="477" y="-573.9" font-family="Arial" font-size="14.00" fill="#000000">mbi </text>
<text text-anchor="start" x="503.4404" y="-573.9" font-family="Arial" font-size="14.00" fill="#666666">[character(11)]</text>
<polygon fill="none" stroke="#000000" points="470,-532.5 470,-562.5 801,-562.5 801,-532.5 470,-532.5"/>
<text text-anchor="start" x="477" y="-543.9" font-family="Arial" font-size="14.00" fill="#000000">beneficiary_id </text>
<text text-anchor="start" x="567.2398" y="-543.9" font-family="Arial" font-size="14.00" fill="#666666">[integer]</text>
<polygon fill="none" stroke="#000000" points="470,-502.5 470,-532.5 801,-532.5 801,-502.5 470,-502.5"/>
<text text-anchor="start" x="477" y="-513.9" font-family="Arial" font-size="14.00" fill="#000000">blue_button_id </text>
<text text-anchor="start" x="572.711" y="-513.9" font-family="Arial" font-size="14.00" fill="#666666">[text]</text>
<polygon fill="none" stroke="#000000" stroke-width="3" points="468,-501.5 468,-749.5 802,-749.5 802,-501.5 468,-501.5"/>
</g>
<!-- public.cclf_files -->
<g id="node2" class="node">
<title>public.cclf_files</title>
<polygon fill="#efefef" stroke="transparent" points="494,-342.5 494,-377.5 777,-377.5 777,-342.5 494,-342.5"/>
<polygon fill="none" stroke="#000000" points="494,-342.5 494,-377.5 777,-377.5 777,-342.5 494,-342.5"/>
<text text-anchor="start" x="511.2117" y="-355.3" font-family="Arial Bold" font-size="18.00" fill="#000000">public.cclf_files</text>
<text text-anchor="start" x="632.2203" y="-355.3" font-family="Arial" font-size="14.00" fill="#000000">    </text>
<text text-anchor="start" x="666.4251" y="-355.3" font-family="Arial" font-size="14.00" fill="#666666">[BASE TABLE]</text>
<polygon fill="none" stroke="#000000" points="494,-312.5 494,-342.5 777,-342.5 777,-312.5 494,-312.5"/>
<text text-anchor="start" x="501" y="-323.9" font-family="Arial" font-size="14.00" fill="#000000">id    </text>
<text text-anchor="start" x="546.094" y="-323.9" font-family="Arial" font-size="14.00" fill="#666666">[integer]</text>
<polygon fill="none" stroke="#000000" points="494,-282.5 494,-312.5 777,-312.5 777,-282.5 494,-282.5"/>
<text text-anchor="start" x="501" y="-293.9" font-family="Arial" font-size="14.00" fill="#000000">created_at    </text>
<text text-anchor="start" x="601.3422" y="-293.9" font-family="Arial" font-size="14.00" fill="#666666">[timestamp with time zone]</text>
<polygon fill="none" stroke="#000000" points="494,-252.5 494,-282.5 777,-282.5 777,-252.5 494,-252.5"/>
<text text-anchor="start" x="500.5344" y="-263.9" font-family="Arial" font-size="14.00" fill="#000000">updated_at    </text>
<text text-anchor="start" x="604.7812" y="-263.9" font-family="Arial" font-size="14.00" fill="#666666">[timestamp with time zone]</text>
<polygon fill="none" stroke="#000000" points="494,-222.5 494,-252.5 777,-252.5 777,-222.5 494,-222.5"/>
<text text-anchor="start" x="501" y="-233.9" font-family="Arial" font-size="14.00" fill="#000000">cclf_num    </text>
<text text-anchor="start" x="591.2104" y="-233.9" font-family="Arial" font-size="14.00" fill="#666666">[integer]</text>
<polygon fill="none" stroke="#000000" points="494,-192.5 494,-222.5 777,-222.5 777,-192.5 494,-192.5"/>
<text text-anchor="start" x="501" y="-203.9" font-family="Arial" font-size="14.00" fill="#000000">name    </text>
<text text-anchor="start" x="570.2132" y="-203.9" font-family="Arial" font-size="14.00" fill="#666666">[text]</text>
<polygon fill="none" stroke="#000000" points="494,-162.5 494,-192.5 777,-192.5 777,-162.5 494,-162.5"/>
<text text-anchor="start" x="501" y="-173.9" font-family="Arial" font-size="14.00" fill="#000000">aco_cms_id    </text>
<text text-anchor="start" x="609.885" y="-173.9" font-family="Arial" font-size="14.00" fill="#666666">[varchar(8)]</text>
<polygon fill="none" stroke="#000000" points="494,-132.5 494,-162.5 777,-162.5 777,-132.5 494,-132.5"/>
<text text-anchor="start" x="501" y="-143.9" font-family="Arial" font-size="14.00" fill="#000000">timestamp    </text>
<text text-anchor="start" x="599.7616" y="-143.9" font-family="Arial" font-size="14.00" fill="#666666">[timestamp with time zone]</text>
<polygon fill="none" stroke="#000000" points="494,-102.5 494,-132.5 777,-132.5 777,-102.5 494,-102.5"/>
<text text-anchor="start" x="501" y="-113.9" font-family="Arial" font-size="14.00" fill="#000000">performance_year    </text>
<text text-anchor="start" x="648.7812" y="-113.9" font-family="Arial" font-size="14.00" fill="#666666">[integer]</text>
<polygon fill="none" stroke="#000000" points="494,-72.5 494,-102.5 777,-102.5 777,-72.5 494,-72.5"/>
<text text-anchor="start" x="501" y="-83.9" font-family="Arial" font-size="14.00" fill="#000000">import_status    </text>
<text text-anchor="start" x="619.2174" y="-83.9" font-family="Arial" font-size="14.00" fill="#666666">[text]</text>
<polygon fill="none" stroke="#000000" points="494,-42.5 494,-72.5 777,-72.5 777,-42.5 494,-42.5"/>
<text text-anchor="start" x="501" y="-53.9" font-family="Arial" font-size="14.00" fill="#000000">type    </text>
<text text-anchor="start" x="561.6606" y="-53.9" font-family="Arial" font-size="14.00" fill="#666666">[smallint]</text>
</g>
<!-- public.cclf_beneficiaries&#45;&gt;public.cclf_files -->
<g id="edge1" class="edge">
<title>public.cclf_beneficiaries:file_id&#45;&gt;public.cclf_files:id</title>
<path fill="none" stroke="#000000" d="M460.2116,-604.9069C410.3917,-576.6795 435.0869,-327.5 494,-327.5"/>
<polygon fill="#000000" stroke="#000000" points="460.3334,-604.9391 468.8476,-611.8499 465.1667,-606.2196 470,-607.5 470,-607.5 470,-607.5 465.1667,-606.2196 471.1524,-603.1501 460.3334,-604.9391 460.3334,-604.9391"/>
<text text-anchor="start" x="6.676" y="-617.5" font-family="Arial" font-size="10.00" fill="#000000">FOREIGN KEY (file_id) REFERENCES cclf_files(id) ON UPDATE RESTRICT ON DELETE RESTRICT</text>
</g>
</g>
</svg>
