<?xml version="1.0" encoding="UTF-8" standalone="no"?>
<!DOCTYPE svg PUBLIC "-//W3C//DTD SVG 1.1//EN"
 "http://www.w3.org/Graphics/SVG/1.1/DTD/svg11.dtd">
<!-- Generated by graphviz version 2.40.1 (20161225.0304)
 -->
<!-- Title: public.acos Pages: 1 -->
<svg width="608pt" height="862pt"
 viewBox="0.00 0.00 608.00 862.00" xmlns="http://www.w3.org/2000/svg" xmlns:xlink="http://www.w3.org/1999/xlink">
<g id="graph0" class="graph" transform="scale(1 1) rotate(0) translate(4 858)">
<title>public.acos</title>
<polygon fill="#ffffff" stroke="transparent" points="-4,4 -4,-858 604,-858 604,4 -4,4"/>
<!-- public.acos -->
<g id="node1" class="node">
<title>public.acos</title>
<polygon fill="#efefef" stroke="transparent" points="272,-345.5 272,-380.5 525,-380.5 525,-345.5 272,-345.5"/>
<polygon fill="none" stroke="#000000" points="272,-345.5 272,-380.5 525,-380.5 525,-345.5 272,-345.5"/>
<text text-anchor="start" x="289.7052" y="-358.3" font-family="Arial Bold" font-size="18.00" fill="#000000">public.acos</text>
<text text-anchor="start" x="379.7268" y="-358.3" font-family="Arial" font-size="14.00" fill="#000000">    </text>
<text text-anchor="start" x="413.9316" y="-358.3" font-family="Arial" font-size="14.00" fill="#666666">[BASE TABLE]</text>
<polygon fill="none" stroke="#000000" points="272,-315.5 272,-345.5 525,-345.5 525,-315.5 272,-315.5"/>
<text text-anchor="start" x="279" y="-326.9" font-family="Arial" font-size="14.00" fill="#000000">uuid </text>
<text text-anchor="start" x="309.345" y="-326.9" font-family="Arial" font-size="14.00" fill="#666666">[uuid]</text>
<polygon fill="none" stroke="#000000" points="272,-285.5 272,-315.5 525,-315.5 525,-285.5 272,-285.5"/>
<text text-anchor="start" x="279" y="-296.9" font-family="Arial" font-size="14.00" fill="#000000">name </text>
<text text-anchor="start" x="317.899" y="-296.9" font-family="Arial" font-size="14.00" fill="#666666">[text]</text>
<polygon fill="none" stroke="#000000" points="272,-255.5 272,-285.5 525,-285.5 525,-255.5 272,-255.5"/>
<text text-anchor="start" x="279" y="-266.9" font-family="Arial" font-size="14.00" fill="#000000">created_at </text>
<text text-anchor="start" x="349.028" y="-266.9" font-family="Arial" font-size="14.00" fill="#666666">[timestamp with time zone]</text>
<polygon fill="none" stroke="#000000" points="272,-225.5 272,-255.5 525,-255.5 525,-225.5 272,-225.5"/>
<text text-anchor="start" x="278.6915" y="-236.9" font-family="Arial" font-size="14.00" fill="#000000">updated_at </text>
<text text-anchor="start" x="352.6241" y="-236.9" font-family="Arial" font-size="14.00" fill="#666666">[timestamp with time zone]</text>
<polygon fill="none" stroke="#000000" points="272,-195.5 272,-225.5 525,-225.5 525,-195.5 272,-195.5"/>
<text text-anchor="start" x="279" y="-206.9" font-family="Arial" font-size="14.00" fill="#000000">id </text>
<text text-anchor="start" x="293.7798" y="-206.9" font-family="Arial" font-size="14.00" fill="#666666">[integer]</text>
<polygon fill="none" stroke="#000000" points="272,-165.5 272,-195.5 525,-195.5 525,-165.5 272,-165.5"/>
<text text-anchor="start" x="279" y="-176.9" font-family="Arial" font-size="14.00" fill="#000000">client_id </text>
<text text-anchor="start" x="334.2314" y="-176.9" font-family="Arial" font-size="14.00" fill="#666666">[text]</text>
<polygon fill="none" stroke="#000000" points="272,-135.5 272,-165.5 525,-165.5 525,-135.5 272,-135.5"/>
<text text-anchor="start" x="279" y="-146.9" font-family="Arial" font-size="14.00" fill="#000000">cms_id </text>
<text text-anchor="start" x="327.223" y="-146.9" font-family="Arial" font-size="14.00" fill="#666666">[varchar(8)]</text>
<polygon fill="none" stroke="#000000" points="272,-105.5 272,-135.5 525,-135.5 525,-105.5 272,-105.5"/>
<text text-anchor="start" x="279" y="-116.9" font-family="Arial" font-size="14.00" fill="#000000">group_id </text>
<text text-anchor="start" x="337.3534" y="-116.9" font-family="Arial" font-size="14.00" fill="#666666">[text]</text>
<polygon fill="none" stroke="#000000" points="272,-75.5 272,-105.5 525,-105.5 525,-75.5 272,-75.5"/>
<text text-anchor="start" x="279" y="-86.9" font-family="Arial" font-size="14.00" fill="#000000">system_id </text>
<text text-anchor="start" x="345.8962" y="-86.9" font-family="Arial" font-size="14.00" fill="#666666">[text]</text>
<polygon fill="none" stroke="#000000" points="272,-45.5 272,-75.5 525,-75.5 525,-45.5 272,-45.5"/>
<text text-anchor="start" x="279" y="-56.9" font-family="Arial" font-size="14.00" fill="#000000">termination_details </text>
<text text-anchor="start" x="400.3534" y="-56.9" font-family="Arial" font-size="14.00" fill="#666666">[jsonb]</text>
<polygon fill="none" stroke="#000000" stroke-width="3" points="270,-44.5 270,-382.5 526,-382.5 526,-44.5 270,-44.5"/>
</g>
<!-- public.jobs -->
<g id="node2" class="node">
<title>public.jobs</title>
<polygon fill="#efefef" stroke="transparent" points="241,-775.5 241,-810.5 557,-810.5 557,-775.5 241,-775.5"/>
<polygon fill="none" stroke="#000000" points="241,-775.5 241,-810.5 557,-810.5 557,-775.5 241,-775.5"/>
<text text-anchor="start" x="292.7081" y="-788.3" font-family="Arial Bold" font-size="18.00" fill="#000000">public.jobs</text>
<text text-anchor="start" x="377.7239" y="-788.3" font-family="Arial" font-size="14.00" fill="#000000">    </text>
<text text-anchor="start" x="411.9287" y="-788.3" font-family="Arial" font-size="14.00" fill="#666666">[BASE TABLE]</text>
<polygon fill="none" stroke="#000000" points="241,-745.5 241,-775.5 557,-775.5 557,-745.5 241,-745.5"/>
<text text-anchor="start" x="248" y="-756.9" font-family="Arial" font-size="14.00" fill="#000000">id    </text>
<text text-anchor="start" x="293.094" y="-756.9" font-family="Arial" font-size="14.00" fill="#666666">[integer]</text>
<polygon fill="none" stroke="#000000" points="241,-715.5 241,-745.5 557,-745.5 557,-715.5 241,-715.5"/>
<text text-anchor="start" x="248" y="-726.9" font-family="Arial" font-size="14.00" fill="#000000">aco_id    </text>
<text text-anchor="start" x="323.4418" y="-726.9" font-family="Arial" font-size="14.00" fill="#666666">[uuid]</text>
<polygon fill="none" stroke="#000000" points="241,-685.5 241,-715.5 557,-715.5 557,-685.5 241,-685.5"/>
<text text-anchor="start" x="248" y="-696.9" font-family="Arial" font-size="14.00" fill="#000000">request_url    </text>
<text text-anchor="start" x="352.2188" y="-696.9" font-family="Arial" font-size="14.00" fill="#666666">[text]</text>
<polygon fill="none" stroke="#000000" points="241,-655.5 241,-685.5 557,-685.5 557,-655.5 241,-655.5"/>
<text text-anchor="start" x="248" y="-666.9" font-family="Arial" font-size="14.00" fill="#000000">status    </text>
<text text-anchor="start" x="319.5512" y="-666.9" font-family="Arial" font-size="14.00" fill="#666666">[text]</text>
<polygon fill="none" stroke="#000000" points="241,-625.5 241,-655.5 557,-655.5 557,-625.5 241,-625.5"/>
<text text-anchor="start" x="248" y="-636.9" font-family="Arial" font-size="14.00" fill="#000000">created_at    </text>
<text text-anchor="start" x="348.3422" y="-636.9" font-family="Arial" font-size="14.00" fill="#666666">[timestamp with time zone]</text>
<polygon fill="none" stroke="#000000" points="241,-595.5 241,-625.5 557,-625.5 557,-595.5 241,-595.5"/>
<text text-anchor="start" x="248" y="-606.9" font-family="Arial" font-size="14.00" fill="#000000">updated_at    </text>
<text text-anchor="start" x="352.2468" y="-606.9" font-family="Arial" font-size="14.00" fill="#666666">[timestamp with time zone]</text>
<polygon fill="none" stroke="#000000" points="241,-565.5 241,-595.5 557,-595.5 557,-565.5 241,-565.5"/>
<text text-anchor="start" x="248" y="-576.9" font-family="Arial" font-size="14.00" fill="#000000">job_count    </text>
<text text-anchor="start" x="342.8976" y="-576.9" font-family="Arial" font-size="14.00" fill="#666666">[integer]</text>
<polygon fill="none" stroke="#000000" points="241,-535.5 241,-565.5 557,-565.5 557,-535.5 241,-535.5"/>
<text text-anchor="start" x="247.7132" y="-546.9" font-family="Arial" font-size="14.00" fill="#000000">transaction_time    </text>
<text text-anchor="start" x="384.6024" y="-546.9" font-family="Arial" font-size="14.00" fill="#666666">[timestamp with time zone]</text>
<polygon fill="none" stroke="#000000" points="241,-505.5 241,-535.5 557,-535.5 557,-505.5 241,-505.5"/>
<text text-anchor="start" x="248" y="-516.9" font-family="Arial" font-size="14.00" fill="#000000">priority    </text>
<text text-anchor="start" x="324.195" y="-516.9" font-family="Arial" font-size="14.00" fill="#666666">[integer]</text>
</g>
<!-- public.jobs&#45;&gt;public.acos -->
<g id="edge1" class="edge">
<title>public.jobs:aco_id&#45;&gt;public.acos:uuid</title>
<path fill="none" stroke="#000000" d="M230.9576,-730.0476C124.5045,-720.129 164.6991,-549.5834 241,-463 325.12,-367.5438 440.88,-522.4562 525,-427 553.3561,-394.8226 567.8889,-330.5 525,-330.5"/>
<polygon fill="#000000" stroke="#000000" points="231.0101,-730.0499 240.7974,-734.9954 236.0051,-730.2749 241,-730.5 241,-730.5 241,-730.5 236.0051,-730.2749 241.2026,-726.0046 231.0101,-730.0499 231.0101,-730.0499"/>
<text text-anchor="start" x="7.1045" y="-740.5" font-family="Arial" font-size="10.00" fill="#000000">FOREIGN KEY (aco_id) REFERENCES acos(uuid)</text>
</g>
</g>
</svg>
