<?xml version="1.0" encoding="UTF-8" standalone="no"?>
<!DOCTYPE svg PUBLIC "-//W3C//DTD SVG 1.1//EN"
 "http://www.w3.org/Graphics/SVG/1.1/DTD/svg11.dtd">
<!-- Generated by graphviz version 2.40.1 (20161225.0304)
 -->
<!-- Title: bcda Pages: 1 -->
<svg width="3176pt" height="1126pt"
 viewBox="0.00 0.00 3176.00 1126.00" xmlns="http://www.w3.org/2000/svg" xmlns:xlink="http://www.w3.org/1999/xlink">
<g id="graph0" class="graph" transform="scale(1 1) rotate(0) translate(4 1122)">
<title>bcda</title>
<polygon fill="#ffffff" stroke="transparent" points="-4,4 -4,-1122 3172,-1122 3172,4 -4,4"/>
<!-- public.schema_migrations_bcda -->
<g id="node1" class="node">
<title>public.schema_migrations_bcda</title>
<polygon fill="#efefef" stroke="transparent" points="43,-799.5 43,-834.5 441,-834.5 441,-799.5 43,-799.5"/>
<polygon fill="none" stroke="#000000" points="43,-799.5 43,-834.5 441,-834.5 441,-799.5 43,-799.5"/>
<text text-anchor="start" x="49.6906" y="-812.3" font-family="Arial Bold" font-size="18.00" fill="#000000">public.schema_migrations_bcda</text>
<text text-anchor="start" x="306.7414" y="-812.3" font-family="Arial" font-size="14.00" fill="#000000">    </text>
<text text-anchor="start" x="340.9462" y="-812.3" font-family="Arial" font-size="14.00" fill="#666666">[BASE TABLE]</text>
<polygon fill="none" stroke="#000000" points="43,-769.5 43,-799.5 441,-799.5 441,-769.5 43,-769.5"/>
<text text-anchor="start" x="50" y="-780.9" font-family="Arial" font-size="14.00" fill="#000000">version    </text>
<text text-anchor="start" x="129.3198" y="-780.9" font-family="Arial" font-size="14.00" fill="#666666">[bigint]</text>
<polygon fill="none" stroke="#000000" points="43,-739.5 43,-769.5 441,-769.5 441,-739.5 43,-739.5"/>
<text text-anchor="start" x="50" y="-750.9" font-family="Arial" font-size="14.00" fill="#000000">dirty    </text>
<text text-anchor="start" x="110.6452" y="-750.9" font-family="Arial" font-size="14.00" fill="#666666">[boolean]</text>
</g>
<!-- public.acos -->
<g id="node2" class="node">
<title>public.acos</title>
<polygon fill="#efefef" stroke="transparent" points="561,-342.5 561,-377.5 844,-377.5 844,-342.5 561,-342.5"/>
<polygon fill="none" stroke="#000000" points="561,-342.5 561,-377.5 844,-377.5 844,-342.5 561,-342.5"/>
<text text-anchor="start" x="593.7052" y="-355.3" font-family="Arial Bold" font-size="18.00" fill="#000000">public.acos</text>
<text text-anchor="start" x="683.7268" y="-355.3" font-family="Arial" font-size="14.00" fill="#000000">    </text>
<text text-anchor="start" x="717.9316" y="-355.3" font-family="Arial" font-size="14.00" fill="#666666">[BASE TABLE]</text>
<polygon fill="none" stroke="#000000" points="561,-312.5 561,-342.5 844,-342.5 844,-312.5 561,-312.5"/>
<text text-anchor="start" x="568" y="-323.9" font-family="Arial" font-size="14.00" fill="#000000">uuid    </text>
<text text-anchor="start" x="628.6592" y="-323.9" font-family="Arial" font-size="14.00" fill="#666666">[uuid]</text>
<polygon fill="none" stroke="#000000" points="561,-282.5 561,-312.5 844,-312.5 844,-282.5 561,-282.5"/>
<text text-anchor="start" x="568" y="-293.9" font-family="Arial" font-size="14.00" fill="#000000">name    </text>
<text text-anchor="start" x="637.2132" y="-293.9" font-family="Arial" font-size="14.00" fill="#666666">[text]</text>
<polygon fill="none" stroke="#000000" points="561,-252.5 561,-282.5 844,-282.5 844,-252.5 561,-252.5"/>
<text text-anchor="start" x="568" y="-263.9" font-family="Arial" font-size="14.00" fill="#000000">created_at    </text>
<text text-anchor="start" x="668.3422" y="-263.9" font-family="Arial" font-size="14.00" fill="#666666">[timestamp with time zone]</text>
<polygon fill="none" stroke="#000000" points="561,-222.5 561,-252.5 844,-252.5 844,-222.5 561,-222.5"/>
<text text-anchor="start" x="567.5344" y="-233.9" font-family="Arial" font-size="14.00" fill="#000000">updated_at    </text>
<text text-anchor="start" x="671.7812" y="-233.9" font-family="Arial" font-size="14.00" fill="#666666">[timestamp with time zone]</text>
<polygon fill="none" stroke="#000000" points="561,-192.5 561,-222.5 844,-222.5 844,-192.5 561,-192.5"/>
<text text-anchor="start" x="568" y="-203.9" font-family="Arial" font-size="14.00" fill="#000000">id    </text>
<text text-anchor="start" x="613.094" y="-203.9" font-family="Arial" font-size="14.00" fill="#666666">[integer]</text>
<polygon fill="none" stroke="#000000" points="561,-162.5 561,-192.5 844,-192.5 844,-162.5 561,-162.5"/>
<text text-anchor="start" x="568" y="-173.9" font-family="Arial" font-size="14.00" fill="#000000">client_id    </text>
<text text-anchor="start" x="653.5456" y="-173.9" font-family="Arial" font-size="14.00" fill="#666666">[text]</text>
<polygon fill="none" stroke="#000000" points="561,-132.5 561,-162.5 844,-162.5 844,-132.5 561,-132.5"/>
<text text-anchor="start" x="568" y="-143.9" font-family="Arial" font-size="14.00" fill="#000000">cms_id    </text>
<text text-anchor="start" x="646.5372" y="-143.9" font-family="Arial" font-size="14.00" fill="#666666">[varchar(8)]</text>
<polygon fill="none" stroke="#000000" points="561,-102.5 561,-132.5 844,-132.5 844,-102.5 561,-102.5"/>
<text text-anchor="start" x="568" y="-113.9" font-family="Arial" font-size="14.00" fill="#000000">group_id    </text>
<text text-anchor="start" x="656.6676" y="-113.9" font-family="Arial" font-size="14.00" fill="#666666">[text]</text>
<polygon fill="none" stroke="#000000" points="561,-72.5 561,-102.5 844,-102.5 844,-72.5 561,-72.5"/>
<text text-anchor="start" x="568" y="-83.9" font-family="Arial" font-size="14.00" fill="#000000">system_id    </text>
<text text-anchor="start" x="665.2104" y="-83.9" font-family="Arial" font-size="14.00" fill="#666666">[text]</text>
<polygon fill="none" stroke="#000000" points="561,-42.5 561,-72.5 844,-72.5 844,-42.5 561,-42.5"/>
<text text-anchor="start" x="568" y="-53.9" font-family="Arial" font-size="14.00" fill="#000000">termination_details    </text>
<text text-anchor="start" x="719.6676" y="-53.9" font-family="Arial" font-size="14.00" fill="#666666">[jsonb]</text>
</g>
<!-- public.cclf_beneficiaries -->
<g id="node3" class="node">
<title>public.cclf_beneficiaries</title>
<polygon fill="#efefef" stroke="transparent" points="966,-874.5 966,-909.5 1297,-909.5 1297,-874.5 966,-874.5"/>
<polygon fill="none" stroke="#000000" points="966,-874.5 966,-909.5 1297,-909.5 1297,-874.5 966,-874.5"/>
<text text-anchor="start" x="972.703" y="-887.3" font-family="Arial Bold" font-size="18.00" fill="#000000">public.cclf_beneficiaries</text>
<text text-anchor="start" x="1162.729" y="-887.3" font-family="Arial" font-size="14.00" fill="#000000">    </text>
<text text-anchor="start" x="1196.9338" y="-887.3" font-family="Arial" font-size="14.00" fill="#666666">[BASE TABLE]</text>
<polygon fill="none" stroke="#000000" points="966,-844.5 966,-874.5 1297,-874.5 1297,-844.5 966,-844.5"/>
<text text-anchor="start" x="973" y="-855.9" font-family="Arial" font-size="14.00" fill="#000000">id    </text>
<text text-anchor="start" x="1018.094" y="-855.9" font-family="Arial" font-size="14.00" fill="#666666">[integer]</text>
<polygon fill="none" stroke="#000000" points="966,-814.5 966,-844.5 1297,-844.5 1297,-814.5 966,-814.5"/>
<text text-anchor="start" x="973" y="-825.9" font-family="Arial" font-size="14.00" fill="#000000">created_at    </text>
<text text-anchor="start" x="1073.3422" y="-825.9" font-family="Arial" font-size="14.00" fill="#666666">[timestamp with time zone]</text>
<polygon fill="none" stroke="#000000" points="966,-784.5 966,-814.5 1297,-814.5 1297,-784.5 966,-784.5"/>
<text text-anchor="start" x="973" y="-795.9" font-family="Arial" font-size="14.00" fill="#000000">updated_at    </text>
<text text-anchor="start" x="1077.2468" y="-795.9" font-family="Arial" font-size="14.00" fill="#666666">[timestamp with time zone]</text>
<polygon fill="none" stroke="#000000" points="966,-754.5 966,-784.5 1297,-784.5 1297,-754.5 966,-754.5"/>
<text text-anchor="start" x="973" y="-765.9" font-family="Arial" font-size="14.00" fill="#000000">file_id    </text>
<text text-anchor="start" x="1043.763" y="-765.9" font-family="Arial" font-size="14.00" fill="#666666">[integer]</text>
<polygon fill="none" stroke="#000000" points="966,-724.5 966,-754.5 1297,-754.5 1297,-724.5 966,-724.5"/>
<text text-anchor="start" x="973" y="-735.9" font-family="Arial" font-size="14.00" fill="#000000">mbi    </text>
<text text-anchor="start" x="1029.7546" y="-735.9" font-family="Arial" font-size="14.00" fill="#666666">[character(11)]</text>
<polygon fill="none" stroke="#000000" points="966,-694.5 966,-724.5 1297,-724.5 1297,-694.5 966,-694.5"/>
<text text-anchor="start" x="973" y="-705.9" font-family="Arial" font-size="14.00" fill="#000000">beneficiary_id    </text>
<text text-anchor="start" x="1093.554" y="-705.9" font-family="Arial" font-size="14.00" fill="#666666">[integer]</text>
<polygon fill="none" stroke="#000000" points="966,-664.5 966,-694.5 1297,-694.5 1297,-664.5 966,-664.5"/>
<text text-anchor="start" x="973" y="-675.9" font-family="Arial" font-size="14.00" fill="#000000">blue_button_id    </text>
<text text-anchor="start" x="1099.0252" y="-675.9" font-family="Arial" font-size="14.00" fill="#666666">[text]</text>
</g>
<!-- public.cclf_files -->
<g id="node4" class="node">
<title>public.cclf_files</title>
<polygon fill="#efefef" stroke="transparent" points="990,-342.5 990,-377.5 1273,-377.5 1273,-342.5 990,-342.5"/>
<polygon fill="none" stroke="#000000" points="990,-342.5 990,-377.5 1273,-377.5 1273,-342.5 990,-342.5"/>
<text text-anchor="start" x="1007.2117" y="-355.3" font-family="Arial Bold" font-size="18.00" fill="#000000">public.cclf_files</text>
<text text-anchor="start" x="1128.2203" y="-355.3" font-family="Arial" font-size="14.00" fill="#000000">    </text>
<text text-anchor="start" x="1162.4251" y="-355.3" font-family="Arial" font-size="14.00" fill="#666666">[BASE TABLE]</text>
<polygon fill="none" stroke="#000000" points="990,-312.5 990,-342.5 1273,-342.5 1273,-312.5 990,-312.5"/>
<text text-anchor="start" x="997" y="-323.9" font-family="Arial" font-size="14.00" fill="#000000">id    </text>
<text text-anchor="start" x="1042.094" y="-323.9" font-family="Arial" font-size="14.00" fill="#666666">[integer]</text>
<polygon fill="none" stroke="#000000" points="990,-282.5 990,-312.5 1273,-312.5 1273,-282.5 990,-282.5"/>
<text text-anchor="start" x="997" y="-293.9" font-family="Arial" font-size="14.00" fill="#000000">created_at    </text>
<text text-anchor="start" x="1097.3422" y="-293.9" font-family="Arial" font-size="14.00" fill="#666666">[timestamp with time zone]</text>
<polygon fill="none" stroke="#000000" points="990,-252.5 990,-282.5 1273,-282.5 1273,-252.5 990,-252.5"/>
<text text-anchor="start" x="996.5344" y="-263.9" font-family="Arial" font-size="14.00" fill="#000000">updated_at    </text>
<text text-anchor="start" x="1100.7812" y="-263.9" font-family="Arial" font-size="14.00" fill="#666666">[timestamp with time zone]</text>
<polygon fill="none" stroke="#000000" points="990,-222.5 990,-252.5 1273,-252.5 1273,-222.5 990,-222.5"/>
<text text-anchor="start" x="997" y="-233.9" font-family="Arial" font-size="14.00" fill="#000000">cclf_num    </text>
<text text-anchor="start" x="1087.2104" y="-233.9" font-family="Arial" font-size="14.00" fill="#666666">[integer]</text>
<polygon fill="none" stroke="#000000" points="990,-192.5 990,-222.5 1273,-222.5 1273,-192.5 990,-192.5"/>
<text text-anchor="start" x="997" y="-203.9" font-family="Arial" font-size="14.00" fill="#000000">name    </text>
<text text-anchor="start" x="1066.2132" y="-203.9" font-family="Arial" font-size="14.00" fill="#666666">[text]</text>
<polygon fill="none" stroke="#000000" points="990,-162.5 990,-192.5 1273,-192.5 1273,-162.5 990,-162.5"/>
<text text-anchor="start" x="997" y="-173.9" font-family="Arial" font-size="14.00" fill="#000000">aco_cms_id    </text>
<text text-anchor="start" x="1105.885" y="-173.9" font-family="Arial" font-size="14.00" fill="#666666">[varchar(8)]</text>
<polygon fill="none" stroke="#000000" points="990,-132.5 990,-162.5 1273,-162.5 1273,-132.5 990,-132.5"/>
<text text-anchor="start" x="997" y="-143.9" font-family="Arial" font-size="14.00" fill="#000000">timestamp    </text>
<text text-anchor="start" x="1095.7616" y="-143.9" font-family="Arial" font-size="14.00" fill="#666666">[timestamp with time zone]</text>
<polygon fill="none" stroke="#000000" points="990,-102.5 990,-132.5 1273,-132.5 1273,-102.5 990,-102.5"/>
<text text-anchor="start" x="997" y="-113.9" font-family="Arial" font-size="14.00" fill="#000000">performance_year    </text>
<text text-anchor="start" x="1144.7812" y="-113.9" font-family="Arial" font-size="14.00" fill="#666666">[integer]</text>
<polygon fill="none" stroke="#000000" points="990,-72.5 990,-102.5 1273,-102.5 1273,-72.5 990,-72.5"/>
<text text-anchor="start" x="997" y="-83.9" font-family="Arial" font-size="14.00" fill="#000000">import_status    </text>
<text text-anchor="start" x="1115.2174" y="-83.9" font-family="Arial" font-size="14.00" fill="#666666">[text]</text>
<polygon fill="none" stroke="#000000" points="990,-42.5 990,-72.5 1273,-72.5 1273,-42.5 990,-42.5"/>
<text text-anchor="start" x="997" y="-53.9" font-family="Arial" font-size="14.00" fill="#000000">type    </text>
<text text-anchor="start" x="1057.6606" y="-53.9" font-family="Arial" font-size="14.00" fill="#666666">[smallint]</text>
</g>
<!-- public.cclf_beneficiaries&#45;&gt;public.cclf_files -->
<g id="edge1" class="edge">
<title>public.cclf_beneficiaries:file_id&#45;&gt;public.cclf_files:id</title>
<path fill="none" stroke="#000000" d="M957.3891,-764.2282C920.0149,-714.3596 943.9866,-327.5 990,-327.5"/>
<polygon fill="#000000" stroke="#000000" points="957.4714,-764.2785 963.6503,-773.3379 961.7357,-766.8893 966,-769.5 966,-769.5 966,-769.5 961.7357,-766.8893 968.3497,-765.6621 957.4714,-764.2785 957.4714,-764.2785"/>
<text text-anchor="start" x="972.676" y="-779.5" font-family="Arial" font-size="10.00" fill="#000000">FOREIGN KEY (file_id) REFERENCES cclf_files(id) ON UPDATE RESTRICT ON DELETE RESTRICT</text>
</g>
<!-- public.job_keys -->
<g id="node5" class="node">
<title>public.job_keys</title>
<polygon fill="#efefef" stroke="transparent" points="1401,-874.5 1401,-909.5 1684,-909.5 1684,-874.5 1401,-874.5"/>
<polygon fill="none" stroke="#000000" points="1401,-874.5 1401,-909.5 1684,-909.5 1684,-874.5 1401,-874.5"/>
<text text-anchor="start" x="1417.2019" y="-887.3" font-family="Arial Bold" font-size="18.00" fill="#000000">public.job_keys</text>
<text text-anchor="start" x="1540.2301" y="-887.3" font-family="Arial" font-size="14.00" fill="#000000">    </text>
<text text-anchor="start" x="1574.4349" y="-887.3" font-family="Arial" font-size="14.00" fill="#666666">[BASE TABLE]</text>
<polygon fill="none" stroke="#000000" points="1401,-844.5 1401,-874.5 1684,-874.5 1684,-844.5 1401,-844.5"/>
<text text-anchor="start" x="1408" y="-855.9" font-family="Arial" font-size="14.00" fill="#000000">id    </text>
<text text-anchor="start" x="1453.094" y="-855.9" font-family="Arial" font-size="14.00" fill="#666666">[integer]</text>
<polygon fill="none" stroke="#000000" points="1401,-814.5 1401,-844.5 1684,-844.5 1684,-814.5 1401,-814.5"/>
<text text-anchor="start" x="1408" y="-825.9" font-family="Arial" font-size="14.00" fill="#000000">created_at    </text>
<text text-anchor="start" x="1508.3422" y="-825.9" font-family="Arial" font-size="14.00" fill="#666666">[timestamp with time zone]</text>
<polygon fill="none" stroke="#000000" points="1401,-784.5 1401,-814.5 1684,-814.5 1684,-784.5 1401,-784.5"/>
<text text-anchor="start" x="1407.5344" y="-795.9" font-family="Arial" font-size="14.00" fill="#000000">updated_at    </text>
<text text-anchor="start" x="1511.7812" y="-795.9" font-family="Arial" font-size="14.00" fill="#666666">[timestamp with time zone]</text>
<polygon fill="none" stroke="#000000" points="1401,-754.5 1401,-784.5 1684,-784.5 1684,-754.5 1401,-754.5"/>
<text text-anchor="start" x="1408" y="-765.9" font-family="Arial" font-size="14.00" fill="#000000">job_id    </text>
<text text-anchor="start" x="1479.5484" y="-765.9" font-family="Arial" font-size="14.00" fill="#666666">[integer]</text>
<polygon fill="none" stroke="#000000" points="1401,-724.5 1401,-754.5 1684,-754.5 1684,-724.5 1401,-724.5"/>
<text text-anchor="start" x="1408" y="-735.9" font-family="Arial" font-size="14.00" fill="#000000">file_name    </text>
<text text-anchor="start" x="1502.8822" y="-735.9" font-family="Arial" font-size="14.00" fill="#666666">[character(127)]</text>
<polygon fill="none" stroke="#000000" points="1401,-694.5 1401,-724.5 1684,-724.5 1684,-694.5 1401,-694.5"/>
<text text-anchor="start" x="1408" y="-705.9" font-family="Arial" font-size="14.00" fill="#000000">resource_type    </text>
<text text-anchor="start" x="1530.8948" y="-705.9" font-family="Arial" font-size="14.00" fill="#666666">[text]</text>
<polygon fill="none" stroke="#000000" points="1401,-664.5 1401,-694.5 1684,-694.5 1684,-664.5 1401,-664.5"/>
<text text-anchor="start" x="1408" y="-675.9" font-family="Arial" font-size="14.00" fill="#000000">que_job_id    </text>
<text text-anchor="start" x="1510.6788" y="-675.9" font-family="Arial" font-size="14.00" fill="#666666">[bigint]</text>
</g>
<!-- public.jobs -->
<g id="node6" class="node">
<title>public.jobs</title>
<polygon fill="#efefef" stroke="transparent" points="545,-904.5 545,-939.5 861,-939.5 861,-904.5 545,-904.5"/>
<polygon fill="none" stroke="#000000" points="545,-904.5 545,-939.5 861,-939.5 861,-904.5 545,-904.5"/>
<text text-anchor="start" x="596.7081" y="-917.3" font-family="Arial Bold" font-size="18.00" fill="#000000">public.jobs</text>
<text text-anchor="start" x="681.7239" y="-917.3" font-family="Arial" font-size="14.00" fill="#000000">    </text>
<text text-anchor="start" x="715.9287" y="-917.3" font-family="Arial" font-size="14.00" fill="#666666">[BASE TABLE]</text>
<polygon fill="none" stroke="#000000" points="545,-874.5 545,-904.5 861,-904.5 861,-874.5 545,-874.5"/>
<text text-anchor="start" x="552" y="-885.9" font-family="Arial" font-size="14.00" fill="#000000">id    </text>
<text text-anchor="start" x="597.094" y="-885.9" font-family="Arial" font-size="14.00" fill="#666666">[integer]</text>
<polygon fill="none" stroke="#000000" points="545,-844.5 545,-874.5 861,-874.5 861,-844.5 545,-844.5"/>
<text text-anchor="start" x="552" y="-855.9" font-family="Arial" font-size="14.00" fill="#000000">aco_id    </text>
<text text-anchor="start" x="627.4418" y="-855.9" font-family="Arial" font-size="14.00" fill="#666666">[uuid]</text>
<polygon fill="none" stroke="#000000" points="545,-814.5 545,-844.5 861,-844.5 861,-814.5 545,-814.5"/>
<text text-anchor="start" x="552" y="-825.9" font-family="Arial" font-size="14.00" fill="#000000">request_url    </text>
<text text-anchor="start" x="656.2188" y="-825.9" font-family="Arial" font-size="14.00" fill="#666666">[text]</text>
<polygon fill="none" stroke="#000000" points="545,-784.5 545,-814.5 861,-814.5 861,-784.5 545,-784.5"/>
<text text-anchor="start" x="552" y="-795.9" font-family="Arial" font-size="14.00" fill="#000000">status    </text>
<text text-anchor="start" x="623.5512" y="-795.9" font-family="Arial" font-size="14.00" fill="#666666">[text]</text>
<polygon fill="none" stroke="#000000" points="545,-754.5 545,-784.5 861,-784.5 861,-754.5 545,-754.5"/>
<text text-anchor="start" x="552" y="-765.9" font-family="Arial" font-size="14.00" fill="#000000">created_at    </text>
<text text-anchor="start" x="652.3422" y="-765.9" font-family="Arial" font-size="14.00" fill="#666666">[timestamp with time zone]</text>
<polygon fill="none" stroke="#000000" points="545,-724.5 545,-754.5 861,-754.5 861,-724.5 545,-724.5"/>
<text text-anchor="start" x="552" y="-735.9" font-family="Arial" font-size="14.00" fill="#000000">updated_at    </text>
<text text-anchor="start" x="656.2468" y="-735.9" font-family="Arial" font-size="14.00" fill="#666666">[timestamp with time zone]</text>
<polygon fill="none" stroke="#000000" points="545,-694.5 545,-724.5 861,-724.5 861,-694.5 545,-694.5"/>
<text text-anchor="start" x="552" y="-705.9" font-family="Arial" font-size="14.00" fill="#000000">job_count    </text>
<text text-anchor="start" x="646.8976" y="-705.9" font-family="Arial" font-size="14.00" fill="#666666">[integer]</text>
<polygon fill="none" stroke="#000000" points="545,-664.5 545,-694.5 861,-694.5 861,-664.5 545,-664.5"/>
<text text-anchor="start" x="551.7132" y="-675.9" font-family="Arial" font-size="14.00" fill="#000000">transaction_time    </text>
<text text-anchor="start" x="688.6024" y="-675.9" font-family="Arial" font-size="14.00" fill="#666666">[timestamp with time zone]</text>
<polygon fill="none" stroke="#000000" points="545,-634.5 545,-664.5 861,-664.5 861,-634.5 545,-634.5"/>
<text text-anchor="start" x="552" y="-645.9" font-family="Arial" font-size="14.00" fill="#000000">priority    </text>
<text text-anchor="start" x="628.195" y="-645.9" font-family="Arial" font-size="14.00" fill="#666666">[integer]</text>
</g>
<!-- public.jobs&#45;&gt;public.acos -->
<g id="edge2" class="edge">
<title>public.jobs:aco_id&#45;&gt;public.acos:uuid</title>
<path fill="none" stroke="#000000" d="M535.1622,-857.2081C489.1428,-833.9376 516.9785,-640.3062 545,-592 621.8143,-459.5802 767.1857,-553.4198 844,-421 864.8514,-385.0544 885.5556,-327.5 844,-327.5"/>
<polygon fill="#000000" stroke="#000000" points="535.2608,-857.231 543.9789,-863.8826 540.1304,-858.3655 545,-859.5 545,-859.5 545,-859.5 540.1304,-858.3655 546.0211,-855.1174 535.2608,-857.231 535.2608,-857.231"/>
<text text-anchor="start" x="491.8545" y="-843.5" font-family="Arial" font-size="10.00" fill="#000000">FOREIGN KEY (aco_id) REFERENCES acos(uuid)</text>
</g>
<!-- public.suppression_files -->
<g id="node7" class="node">
<title>public.suppression_files</title>
<polygon fill="#efefef" stroke="transparent" points="1788,-859.5 1788,-894.5 2120,-894.5 2120,-859.5 1788,-859.5"/>
<polygon fill="none" stroke="#000000" points="1788,-859.5 1788,-894.5 2120,-894.5 2120,-859.5 1788,-859.5"/>
<text text-anchor="start" x="1794.6981" y="-872.3" font-family="Arial Bold" font-size="18.00" fill="#000000">public.suppression_files</text>
<text text-anchor="start" x="1985.7339" y="-872.3" font-family="Arial" font-size="14.00" fill="#000000">    </text>
<text text-anchor="start" x="2019.9387" y="-872.3" font-family="Arial" font-size="14.00" fill="#666666">[BASE TABLE]</text>
<polygon fill="none" stroke="#000000" points="1788,-829.5 1788,-859.5 2120,-859.5 2120,-829.5 1788,-829.5"/>
<text text-anchor="start" x="1795" y="-840.9" font-family="Arial" font-size="14.00" fill="#000000">id    </text>
<text text-anchor="start" x="1840.094" y="-840.9" font-family="Arial" font-size="14.00" fill="#666666">[integer]</text>
<polygon fill="none" stroke="#000000" points="1788,-799.5 1788,-829.5 2120,-829.5 2120,-799.5 1788,-799.5"/>
<text text-anchor="start" x="1795" y="-810.9" font-family="Arial" font-size="14.00" fill="#000000">created_at    </text>
<text text-anchor="start" x="1895.3422" y="-810.9" font-family="Arial" font-size="14.00" fill="#666666">[timestamp with time zone]</text>
<polygon fill="none" stroke="#000000" points="1788,-769.5 1788,-799.5 2120,-799.5 2120,-769.5 1788,-769.5"/>
<text text-anchor="start" x="1795" y="-780.9" font-family="Arial" font-size="14.00" fill="#000000">updated_at    </text>
<text text-anchor="start" x="1899.2468" y="-780.9" font-family="Arial" font-size="14.00" fill="#666666">[timestamp with time zone]</text>
<polygon fill="none" stroke="#000000" points="1788,-739.5 1788,-769.5 2120,-769.5 2120,-739.5 1788,-739.5"/>
<text text-anchor="start" x="1795" y="-750.9" font-family="Arial" font-size="14.00" fill="#000000">name    </text>
<text text-anchor="start" x="1864.2132" y="-750.9" font-family="Arial" font-size="14.00" fill="#666666">[text]</text>
<polygon fill="none" stroke="#000000" points="1788,-709.5 1788,-739.5 2120,-739.5 2120,-709.5 1788,-709.5"/>
<text text-anchor="start" x="1795" y="-720.9" font-family="Arial" font-size="14.00" fill="#000000">timestamp    </text>
<text text-anchor="start" x="1893.7616" y="-720.9" font-family="Arial" font-size="14.00" fill="#666666">[timestamp with time zone]</text>
<polygon fill="none" stroke="#000000" points="1788,-679.5 1788,-709.5 2120,-709.5 2120,-679.5 1788,-679.5"/>
<text text-anchor="start" x="1795" y="-690.9" font-family="Arial" font-size="14.00" fill="#000000">import_status    </text>
<text text-anchor="start" x="1913.2174" y="-690.9" font-family="Arial" font-size="14.00" fill="#666666">[text]</text>
</g>
<!-- public.suppressions -->
<g id="node8" class="node">
<title>public.suppressions</title>
<polygon fill="#efefef" stroke="transparent" points="2225,-1039.5 2225,-1074.5 2582,-1074.5 2582,-1039.5 2225,-1039.5"/>
<polygon fill="none" stroke="#000000" points="2225,-1039.5 2225,-1074.5 2582,-1074.5 2582,-1039.5 2225,-1039.5"/>
<text text-anchor="start" x="2260.6996" y="-1052.3" font-family="Arial Bold" font-size="18.00" fill="#000000">public.suppressions</text>
<text text-anchor="start" x="2418.7324" y="-1052.3" font-family="Arial" font-size="14.00" fill="#000000">    </text>
<text text-anchor="start" x="2452.9372" y="-1052.3" font-family="Arial" font-size="14.00" fill="#666666">[BASE TABLE]</text>
<polygon fill="none" stroke="#000000" points="2225,-1009.5 2225,-1039.5 2582,-1039.5 2582,-1009.5 2225,-1009.5"/>
<text text-anchor="start" x="2232" y="-1020.9" font-family="Arial" font-size="14.00" fill="#000000">id    </text>
<text text-anchor="start" x="2277.094" y="-1020.9" font-family="Arial" font-size="14.00" fill="#666666">[integer]</text>
<polygon fill="none" stroke="#000000" points="2225,-979.5 2225,-1009.5 2582,-1009.5 2582,-979.5 2225,-979.5"/>
<text text-anchor="start" x="2232" y="-990.9" font-family="Arial" font-size="14.00" fill="#000000">created_at    </text>
<text text-anchor="start" x="2332.3422" y="-990.9" font-family="Arial" font-size="14.00" fill="#666666">[timestamp with time zone]</text>
<polygon fill="none" stroke="#000000" points="2225,-949.5 2225,-979.5 2582,-979.5 2582,-949.5 2225,-949.5"/>
<text text-anchor="start" x="2232" y="-960.9" font-family="Arial" font-size="14.00" fill="#000000">updated_at    </text>
<text text-anchor="start" x="2336.2468" y="-960.9" font-family="Arial" font-size="14.00" fill="#666666">[timestamp with time zone]</text>
<polygon fill="none" stroke="#000000" points="2225,-919.5 2225,-949.5 2582,-949.5 2582,-919.5 2225,-919.5"/>
<text text-anchor="start" x="2232" y="-930.9" font-family="Arial" font-size="14.00" fill="#000000">source_code    </text>
<text text-anchor="start" x="2346.3436" y="-930.9" font-family="Arial" font-size="14.00" fill="#666666">[varchar(5)]</text>
<polygon fill="none" stroke="#000000" points="2225,-889.5 2225,-919.5 2582,-919.5 2582,-889.5 2225,-889.5"/>
<text text-anchor="start" x="2232" y="-900.9" font-family="Arial" font-size="14.00" fill="#000000">effective_dt    </text>
<text text-anchor="start" x="2337.7868" y="-900.9" font-family="Arial" font-size="14.00" fill="#666666">[timestamp with time zone]</text>
<polygon fill="none" stroke="#000000" points="2225,-859.5 2225,-889.5 2582,-889.5 2582,-859.5 2225,-859.5"/>
<text text-anchor="start" x="2232" y="-870.9" font-family="Arial" font-size="14.00" fill="#000000">pref_indicator    </text>
<text text-anchor="start" x="2350.9986" y="-870.9" font-family="Arial" font-size="14.00" fill="#666666">[character(1)]</text>
<polygon fill="none" stroke="#000000" points="2225,-829.5 2225,-859.5 2582,-859.5 2582,-829.5 2225,-829.5"/>
<text text-anchor="start" x="2232" y="-840.9" font-family="Arial" font-size="14.00" fill="#000000">samhsa_source_code    </text>
<text text-anchor="start" x="2403.1346" y="-840.9" font-family="Arial" font-size="14.00" fill="#666666">[varchar(5)]</text>
<polygon fill="none" stroke="#000000" points="2225,-799.5 2225,-829.5 2582,-829.5 2582,-799.5 2225,-799.5"/>
<text text-anchor="start" x="2232" y="-810.9" font-family="Arial" font-size="14.00" fill="#000000">samhsa_effective_dt    </text>
<text text-anchor="start" x="2394.5778" y="-810.9" font-family="Arial" font-size="14.00" fill="#666666">[timestamp with time zone]</text>
<polygon fill="none" stroke="#000000" points="2225,-769.5 2225,-799.5 2582,-799.5 2582,-769.5 2225,-769.5"/>
<text text-anchor="start" x="2232" y="-780.9" font-family="Arial" font-size="14.00" fill="#000000">samhsa_pref_indicator    </text>
<text text-anchor="start" x="2407.7896" y="-780.9" font-family="Arial" font-size="14.00" fill="#666666">[character(1)]</text>
<polygon fill="none" stroke="#000000" points="2225,-739.5 2225,-769.5 2582,-769.5 2582,-739.5 2225,-739.5"/>
<text text-anchor="start" x="2232" y="-750.9" font-family="Arial" font-size="14.00" fill="#000000">aco_cms_id    </text>
<text text-anchor="start" x="2340.885" y="-750.9" font-family="Arial" font-size="14.00" fill="#666666">[varchar(8)]</text>
<polygon fill="none" stroke="#000000" points="2225,-709.5 2225,-739.5 2582,-739.5 2582,-709.5 2225,-709.5"/>
<text text-anchor="start" x="2232" y="-720.9" font-family="Arial" font-size="14.00" fill="#000000">beneficiary_link_key    </text>
<text text-anchor="start" x="2392.2258" y="-720.9" font-family="Arial" font-size="14.00" fill="#666666">[integer]</text>
<polygon fill="none" stroke="#000000" points="2225,-679.5 2225,-709.5 2582,-709.5 2582,-679.5 2225,-679.5"/>
<text text-anchor="start" x="2232" y="-690.9" font-family="Arial" font-size="14.00" fill="#000000">effective_date    </text>
<text text-anchor="start" x="2353.352" y="-690.9" font-family="Arial" font-size="14.00" fill="#666666">[timestamp with time zone]</text>
<polygon fill="none" stroke="#000000" points="2225,-649.5 2225,-679.5 2582,-679.5 2582,-649.5 2225,-649.5"/>
<text text-anchor="start" x="2232" y="-660.9" font-family="Arial" font-size="14.00" fill="#000000">preference_indicator    </text>
<text text-anchor="start" x="2393.7896" y="-660.9" font-family="Arial" font-size="14.00" fill="#666666">[character(1)]</text>
<polygon fill="none" stroke="#000000" points="2225,-619.5 2225,-649.5 2582,-649.5 2582,-619.5 2225,-619.5"/>
<text text-anchor="start" x="2231.5863" y="-630.9" font-family="Arial" font-size="14.00" fill="#000000">samhsa_effective_date    </text>
<text text-anchor="start" x="2409.7293" y="-630.9" font-family="Arial" font-size="14.00" fill="#666666">[timestamp with time zone]</text>
<polygon fill="none" stroke="#000000" points="2225,-589.5 2225,-619.5 2582,-619.5 2582,-589.5 2225,-589.5"/>
<text text-anchor="start" x="2232" y="-600.9" font-family="Arial" font-size="14.00" fill="#000000">samhsa_preference_indicator    </text>
<text text-anchor="start" x="2450.5806" y="-600.9" font-family="Arial" font-size="14.00" fill="#666666">[character(1)]</text>
<polygon fill="none" stroke="#000000" points="2225,-559.5 2225,-589.5 2582,-589.5 2582,-559.5 2225,-559.5"/>
<text text-anchor="start" x="2232" y="-570.9" font-family="Arial" font-size="14.00" fill="#000000">file_id    </text>
<text text-anchor="start" x="2302.763" y="-570.9" font-family="Arial" font-size="14.00" fill="#666666">[integer]</text>
<polygon fill="none" stroke="#000000" points="2225,-529.5 2225,-559.5 2582,-559.5 2582,-529.5 2225,-529.5"/>
<text text-anchor="start" x="2232" y="-540.9" font-family="Arial" font-size="14.00" fill="#000000">blue_button_id    </text>
<text text-anchor="start" x="2358.0252" y="-540.9" font-family="Arial" font-size="14.00" fill="#666666">[text]</text>
<polygon fill="none" stroke="#000000" points="2225,-499.5 2225,-529.5 2582,-529.5 2582,-499.5 2225,-499.5"/>
<text text-anchor="start" x="2232" y="-510.9" font-family="Arial" font-size="14.00" fill="#000000">mbi    </text>
<text text-anchor="start" x="2288.7546" y="-510.9" font-family="Arial" font-size="14.00" fill="#666666">[varchar(11)]</text>
</g>
<!-- public.alr -->
<g id="node9" class="node">
<title>public.alr</title>
<polygon fill="#efefef" stroke="transparent" points="2686,-949.5 2686,-984.5 2969,-984.5 2969,-949.5 2686,-949.5"/>
<polygon fill="none" stroke="#000000" points="2686,-949.5 2686,-984.5 2969,-984.5 2969,-949.5 2686,-949.5"/>
<text text-anchor="start" x="2727.7151" y="-962.3" font-family="Arial Bold" font-size="18.00" fill="#000000">public.alr</text>
<text text-anchor="start" x="2799.7169" y="-962.3" font-family="Arial" font-size="14.00" fill="#000000">    </text>
<text text-anchor="start" x="2833.9217" y="-962.3" font-family="Arial" font-size="14.00" fill="#666666">[BASE TABLE]</text>
<polygon fill="none" stroke="#000000" points="2686,-919.5 2686,-949.5 2969,-949.5 2969,-919.5 2686,-919.5"/>
<text text-anchor="start" x="2693" y="-930.9" font-family="Arial" font-size="14.00" fill="#000000">created_at    </text>
<text text-anchor="start" x="2793.3422" y="-930.9" font-family="Arial" font-size="14.00" fill="#666666">[timestamp with time zone]</text>
<polygon fill="none" stroke="#000000" points="2686,-889.5 2686,-919.5 2969,-919.5 2969,-889.5 2686,-889.5"/>
<text text-anchor="start" x="2692.5344" y="-900.9" font-family="Arial" font-size="14.00" fill="#000000">updated_at    </text>
<text text-anchor="start" x="2796.7812" y="-900.9" font-family="Arial" font-size="14.00" fill="#666666">[timestamp with time zone]</text>
<polygon fill="none" stroke="#000000" points="2686,-859.5 2686,-889.5 2969,-889.5 2969,-859.5 2686,-859.5"/>
<text text-anchor="start" x="2693" y="-870.9" font-family="Arial" font-size="14.00" fill="#000000">id    </text>
<text text-anchor="start" x="2738.094" y="-870.9" font-family="Arial" font-size="14.00" fill="#666666">[bigint]</text>
<polygon fill="none" stroke="#000000" points="2686,-829.5 2686,-859.5 2969,-859.5 2969,-829.5 2686,-829.5"/>
<text text-anchor="start" x="2693" y="-840.9" font-family="Arial" font-size="14.00" fill="#000000">metakey    </text>
<text text-anchor="start" x="2780.1038" y="-840.9" font-family="Arial" font-size="14.00" fill="#666666">[bigint]</text>
<polygon fill="none" stroke="#000000" points="2686,-799.5 2686,-829.5 2969,-829.5 2969,-799.5 2686,-799.5"/>
<text text-anchor="start" x="2693" y="-810.9" font-family="Arial" font-size="14.00" fill="#000000">mbi    </text>
<text text-anchor="start" x="2749.7546" y="-810.9" font-family="Arial" font-size="14.00" fill="#666666">[character(11)]</text>
<polygon fill="none" stroke="#000000" points="2686,-769.5 2686,-799.5 2969,-799.5 2969,-769.5 2686,-769.5"/>
<text text-anchor="start" x="2693" y="-780.9" font-family="Arial" font-size="14.00" fill="#000000">hic    </text>
<text text-anchor="start" x="2745.094" y="-780.9" font-family="Arial" font-size="14.00" fill="#666666">[character(12)]</text>
<polygon fill="none" stroke="#000000" points="2686,-739.5 2686,-769.5 2969,-769.5 2969,-739.5 2686,-739.5"/>
<text text-anchor="start" x="2693" y="-750.9" font-family="Arial" font-size="14.00" fill="#000000">firstname    </text>
<text text-anchor="start" x="2784.7616" y="-750.9" font-family="Arial" font-size="14.00" fill="#666666">[varchar(30)]</text>
<polygon fill="none" stroke="#000000" points="2686,-709.5 2686,-739.5 2969,-739.5 2969,-709.5 2686,-709.5"/>
<text text-anchor="start" x="2693" y="-720.9" font-family="Arial" font-size="14.00" fill="#000000">lastname    </text>
<text text-anchor="start" x="2783.993" y="-720.9" font-family="Arial" font-size="14.00" fill="#666666">[varchar(40)]</text>
<polygon fill="none" stroke="#000000" points="2686,-679.5 2686,-709.5 2969,-709.5 2969,-679.5 2686,-679.5"/>
<text text-anchor="start" x="2693" y="-690.9" font-family="Arial" font-size="14.00" fill="#000000">sex    </text>
<text text-anchor="start" x="2748.9874" y="-690.9" font-family="Arial" font-size="14.00" fill="#666666">[character(1)]</text>
<polygon fill="none" stroke="#000000" points="2686,-649.5 2686,-679.5 2969,-679.5 2969,-649.5 2686,-649.5"/>
<text text-anchor="start" x="2693" y="-660.9" font-family="Arial" font-size="14.00" fill="#000000">dob    </text>
<text text-anchor="start" x="2750.5526" y="-660.9" font-family="Arial" font-size="14.00" fill="#666666">[timestamp without time zone]</text>
<polygon fill="none" stroke="#000000" points="2686,-619.5 2686,-649.5 2969,-649.5 2969,-619.5 2686,-619.5"/>
<text text-anchor="start" x="2693" y="-630.9" font-family="Arial" font-size="14.00" fill="#000000">dod    </text>
<text text-anchor="start" x="2750.5526" y="-630.9" font-family="Arial" font-size="14.00" fill="#666666">[timestamp without time zone]</text>
<polygon fill="none" stroke="#000000" points="2686,-589.5 2686,-619.5 2969,-619.5 2969,-589.5 2686,-589.5"/>
<text text-anchor="start" x="2693" y="-600.9" font-family="Arial" font-size="14.00" fill="#000000">keyvalue    </text>
<text text-anchor="start" x="2782.4418" y="-600.9" font-family="Arial" font-size="14.00" fill="#666666">[bytea]</text>
</g>
<!-- public.alr_meta -->
<g id="node10" class="node">
<title>public.alr_meta</title>
<polygon fill="#efefef" stroke="transparent" points="2686,-267.5 2686,-302.5 2969,-302.5 2969,-267.5 2686,-267.5"/>
<polygon fill="none" stroke="#000000" points="2686,-267.5 2686,-302.5 2969,-302.5 2969,-267.5 2686,-267.5"/>
<text text-anchor="start" x="2702.7086" y="-280.3" font-family="Arial Bold" font-size="18.00" fill="#000000">public.alr_meta</text>
<text text-anchor="start" x="2824.7234" y="-280.3" font-family="Arial" font-size="14.00" fill="#000000">    </text>
<text text-anchor="start" x="2858.9282" y="-280.3" font-family="Arial" font-size="14.00" fill="#666666">[BASE TABLE]</text>
<polygon fill="none" stroke="#000000" points="2686,-237.5 2686,-267.5 2969,-267.5 2969,-237.5 2686,-237.5"/>
<text text-anchor="start" x="2693" y="-248.9" font-family="Arial" font-size="14.00" fill="#000000">created_at    </text>
<text text-anchor="start" x="2793.3422" y="-248.9" font-family="Arial" font-size="14.00" fill="#666666">[timestamp with time zone]</text>
<polygon fill="none" stroke="#000000" points="2686,-207.5 2686,-237.5 2969,-237.5 2969,-207.5 2686,-207.5"/>
<text text-anchor="start" x="2692.5344" y="-218.9" font-family="Arial" font-size="14.00" fill="#000000">updated_at    </text>
<text text-anchor="start" x="2796.7812" y="-218.9" font-family="Arial" font-size="14.00" fill="#666666">[timestamp with time zone]</text>
<polygon fill="none" stroke="#000000" points="2686,-177.5 2686,-207.5 2969,-207.5 2969,-177.5 2686,-177.5"/>
<text text-anchor="start" x="2693" y="-188.9" font-family="Arial" font-size="14.00" fill="#000000">id    </text>
<text text-anchor="start" x="2738.094" y="-188.9" font-family="Arial" font-size="14.00" fill="#666666">[bigint]</text>
<polygon fill="none" stroke="#000000" points="2686,-147.5 2686,-177.5 2969,-177.5 2969,-147.5 2686,-147.5"/>
<text text-anchor="start" x="2693" y="-158.9" font-family="Arial" font-size="14.00" fill="#000000">aco    </text>
<text text-anchor="start" x="2749.77" y="-158.9" font-family="Arial" font-size="14.00" fill="#666666">[varchar(5)]</text>
<polygon fill="none" stroke="#000000" points="2686,-117.5 2686,-147.5 2969,-147.5 2969,-117.5 2686,-117.5"/>
<text text-anchor="start" x="2693" y="-128.9" font-family="Arial" font-size="14.00" fill="#000000">timestp    </text>
<text text-anchor="start" x="2772.3184" y="-128.9" font-family="Arial" font-size="14.00" fill="#666666">[timestamp with time zone]</text>
</g>
<!-- public.alr&#45;&gt;public.alr_meta -->
<g id="edge3" class="edge">
<title>public.alr:metakey&#45;&gt;public.alr_meta:id</title>
<path fill="none" stroke="#000000" d="M2679.4475,-836.7235C2649.9283,-763.1617 2652.1124,-192.5 2686,-192.5"/>
<polygon fill="#000000" stroke="#000000" points="2679.5564,-836.8527 2682.5587,-847.3996 2682.7782,-840.6764 2686,-844.5 2686,-844.5 2686,-844.5 2682.7782,-840.6764 2689.4413,-841.6004 2679.5564,-836.8527 2679.5564,-836.8527"/>
<text text-anchor="start" x="2692.5605" y="-854.5" font-family="Arial" font-size="10.00" fill="#000000">FOREIGN KEY (metakey) REFERENCES alr_meta(id) ON UPDATE RESTRICT ON DELETE RESTRICT</text>
</g>
</g>
</svg>
